<svg width="160" height="102" viewBox="0 0 160 102" fill="none" xmlns="http://www.w3.org/2000/svg">
<path d="M40.1084 0.519043L48.2266 4.85046L26.0559 25.7294L6.50491 31.8712L0 23.0424" fill="#FFE8BC"/>
<path d="M9.49799 27.4254L1.96081 23.1355L40.1084 0.518733L39.211 0L0 23.0421V81.8871L8.5539 86.7528L11.8167 83.3499" fill="#00A8FF"/>
<path opacity="0.42" d="M9.49799 27.4254L1.96081 23.1355L40.1084 0.518733L39.211 0L0 23.0421V81.8871L8.5539 86.7528L11.8167 83.3499" fill="#1371A5"/>
<path d="M48.2265 4.85059L8.55383 27.9809V86.7533L48.8542 62.6685L48.2265 4.85059Z" fill="#00A8FF"/>
<path d="M10.0531 24.1212L12.4756 25.6566V38.1892L14.011 36.218L15.09 37.4371V24.1679L12.8283 22.5391L10.0531 24.1212Z" fill="#CD4848"/>
<path d="M12.9636 75.2637C12.9636 75.2637 14.1083 79.5006 12.9636 81.7612L28.5238 90.9103L43.9152 99.8166V93.2285" fill="#FFE8BC"/>
<path d="M12.4489 74.6128C12.4845 74.9065 12.5216 75.2002 12.56 75.4939L43.9151 93.2406V99.8286L12.5847 81.5426C12.5847 81.802 12.5847 82.0614 12.5847 82.3249L45.1339 101.163V92.1906L12.4489 74.6128Z" fill="#9A433A"/>
<path d="M12.6219 74.7285L44.961 93.2574L90.3363 66.6169L58.693 48.4544C58.2143 48.1798 57.6713 48.037 57.1194 48.0406C56.5675 48.0442 56.0264 48.1941 55.5514 48.475L12.6178 73.9173C12.547 73.959 12.4885 74.0185 12.448 74.0899C12.4074 74.1612 12.3863 74.242 12.3867 74.3241C12.3871 74.4061 12.4091 74.4867 12.4503 74.5576C12.4916 74.6286 12.5507 74.6875 12.6219 74.7285Z" fill="#D96658"/>
<path d="M45.1256 101.163C45.1256 101.163 90.4721 74.4404 90.3362 74.3292C90.2004 74.218 90.3362 66.6006 90.3362 66.6006L44.9609 93.2411L45.1256 101.163Z" fill="#9A433A"/>
<path d="M39.6082 93.998L39.2788 99.9726L40.8805 98.6509L42.1034 101.702L42.5975 95.5668L39.6082 93.998Z" fill="#2AE400"/>
<path d="M45.4631 52.1528C39.1762 52.1528 34.0768 53.8189 34.0768 55.8762H56.8494C56.8494 53.8189 51.75 52.1528 45.4631 52.1528Z" fill="#0A1D23"/>
<path d="M56.8492 55.8765L56.8032 56.2032C56.8327 56.0968 56.8482 55.9869 56.8492 55.8765Z" fill="#06489E"/>
<path d="M45.4631 59.5944C51.414 59.5944 56.2972 58.1033 56.8034 56.1979L56.8494 55.8711H34.0768L34.1136 56.161C34.56 58.071 39.4708 59.5944 45.4631 59.5944Z" fill="#0A1D23"/>
<path d="M49.817 36.6562H47.2534V63.0832H49.817V36.6562Z" fill="#25B000"/>
<path d="M48.5329 37.1994C49.2395 37.1994 49.8123 36.9563 49.8123 36.6564C49.8123 36.3564 49.2395 36.1133 48.5329 36.1133C47.8263 36.1133 47.2534 36.3564 47.2534 36.6564C47.2534 36.9563 47.8263 37.1994 48.5329 37.1994Z" fill="#25B000"/>
<path d="M55.5033 41.6969L52.9916 41.1841L47.7048 67.0768L50.2165 67.5897L55.5033 41.6969Z" fill="#FF8F02"/>
<path d="M55.5034 41.6991C55.5634 41.4052 55.0508 41.0524 54.3585 40.911C53.6661 40.7696 53.0562 40.8933 52.9962 41.1871C52.9362 41.481 53.4488 41.8338 54.1412 41.9752C54.8335 42.1166 55.4434 41.9929 55.5034 41.6991Z" fill="#FF8F02"/>
<path d="M42.3656 56.4563L40.0276 57.7955C39.98 57.823 39.9234 57.8304 39.8704 57.8162C39.8173 57.802 39.772 57.7672 39.7446 57.7196C39.7171 57.672 39.7097 57.6154 39.7239 57.5624C39.7381 57.5093 39.7729 57.464 39.8205 57.4366L42.2138 56.0558C42.2364 56.0421 42.2613 56.0328 42.2874 56.0282L41.8271 53.4969L39.4707 54.85C39.4471 54.8636 39.4211 54.8724 39.3942 54.876C39.3672 54.8795 39.3397 54.8777 39.3135 54.8707C39.2872 54.8636 39.2625 54.8515 39.241 54.8349C39.2194 54.8183 39.2013 54.7976 39.1877 54.7741C39.1741 54.7505 39.1652 54.7245 39.1617 54.6975C39.1582 54.6705 39.16 54.6431 39.167 54.6168C39.1741 54.5905 39.1862 54.5659 39.2028 54.5443C39.2194 54.5227 39.24 54.5046 39.2636 54.491L41.6568 53.1103C41.6836 53.0947 41.7135 53.0853 41.7443 53.0827L41.3117 50.7401L39.0105 52.061C38.9629 52.0884 38.9063 52.0959 38.8532 52.0816C38.8001 52.0674 38.7549 52.0326 38.7274 51.985C38.7 51.9374 38.6925 51.8809 38.7068 51.8278C38.721 51.7747 38.7558 51.7294 38.8034 51.702L41.1966 50.3213H41.2426L40.7594 47.7117L38.4582 49.028C38.4106 49.0555 38.354 49.0629 38.3009 49.0486C38.2479 49.0344 38.2026 48.9996 38.1751 48.952C38.1477 48.9044 38.1402 48.8479 38.1545 48.7948C38.1687 48.7417 38.2035 48.6965 38.2511 48.669L40.6443 47.2883H40.6811L40.2209 44.7386L37.8645 46.1055C37.8169 46.1329 37.7603 46.1404 37.7072 46.1261C37.6541 46.1119 37.6089 46.0771 37.5814 46.0295C37.554 45.9819 37.5465 45.9254 37.5608 45.8723C37.575 45.8192 37.6098 45.7739 37.6574 45.7465L40.0506 44.3658C40.0732 44.352 40.0982 44.3427 40.1243 44.3381L39.7146 42.1244L37.372 43.4637C37.3244 43.4912 37.2679 43.4986 37.2148 43.4843C37.1617 43.4701 37.1164 43.4354 37.089 43.3877C37.0615 43.3401 37.0541 43.2836 37.0683 43.2305C37.0826 43.1774 37.1173 43.1322 37.1649 43.1047L39.5582 41.724C39.5822 41.7097 39.6088 41.7003 39.6364 41.6964L39.2268 39.4872L36.8888 40.8219C36.8412 40.8494 36.7846 40.8568 36.7315 40.8426C36.6784 40.8283 36.6332 40.7936 36.6057 40.746C36.5783 40.6984 36.5708 40.6418 36.5851 40.5887C36.5993 40.5356 36.6341 40.4904 36.6817 40.4629L39.0749 39.0822C39.0964 39.0706 39.1198 39.0628 39.1439 39.0592L38.6837 36.6291L36.3825 37.95C36.3349 37.9775 36.2783 37.9849 36.2253 37.9707C36.1722 37.9564 36.1269 37.9217 36.0995 37.8741C36.072 37.8265 36.0646 37.7699 36.0788 37.7168C36.093 37.6637 36.1278 37.6185 36.1754 37.591L38.5686 36.2103H38.6147L38.403 35.0781L33.3403 38.2262C33.3403 38.2262 36.9486 58.3156 37.0222 58.357C39.1301 59.457 42.9639 59.5859 42.9639 59.5859L42.3656 56.4563Z" fill="#FFD600"/>
<path d="M36.1754 37.6085C36.1278 37.6359 36.0931 37.6812 36.0789 37.7343C36.0646 37.7873 36.0721 37.8439 36.0995 37.8915C36.127 37.9391 36.1722 37.9739 36.2253 37.9881C36.2784 38.0023 36.335 37.9949 36.3826 37.9675L38.6838 36.6466L38.6055 36.2231H38.5595L36.1754 37.6085Z" fill="#CA4300"/>
<path d="M36.6817 40.4717C36.6341 40.4991 36.5993 40.5444 36.5851 40.5975C36.5708 40.6505 36.5783 40.7071 36.6057 40.7547C36.6332 40.8023 36.6784 40.8371 36.7315 40.8513C36.7846 40.8656 36.8412 40.8581 36.8888 40.8307L39.2268 39.496L39.1486 39.0771C39.1244 39.0808 39.101 39.0886 39.0795 39.1002L36.6817 40.4717Z" fill="#CA4300"/>
<path d="M37.1603 43.0996C37.1127 43.1271 37.078 43.1723 37.0637 43.2254C37.0495 43.2785 37.0569 43.335 37.0844 43.3827C37.1118 43.4303 37.1571 43.465 37.2102 43.4792C37.2633 43.4935 37.3198 43.4861 37.3674 43.4586L39.71 42.1193L39.6318 41.7051C39.6041 41.709 39.5776 41.7184 39.5536 41.7327L37.1603 43.0996Z" fill="#CA4300"/>
<path d="M37.6527 45.7227C37.6051 45.7501 37.5704 45.7954 37.5562 45.8484C37.5419 45.9015 37.5493 45.9581 37.5768 46.0057C37.6043 46.0533 37.6495 46.088 37.7026 46.1023C37.7557 46.1165 37.8122 46.1091 37.8598 46.0816L40.1979 44.7423L40.1196 44.3281C40.0936 44.3326 40.0686 44.342 40.046 44.3557L37.6527 45.7227Z" fill="#CA4300"/>
<path d="M38.2373 48.6822C38.2138 48.6958 38.1931 48.7139 38.1765 48.7355C38.16 48.7571 38.1478 48.7817 38.1407 48.808C38.1337 48.8343 38.1319 48.8617 38.1354 48.8887C38.139 48.9157 38.1478 48.9417 38.1614 48.9652C38.175 48.9888 38.1931 49.0095 38.2147 49.0261C38.2363 49.0426 38.2609 49.0548 38.2872 49.0618C38.3135 49.0689 38.3409 49.0707 38.3679 49.0671C38.3949 49.0636 38.4209 49.0548 38.4444 49.0412L40.7456 47.7249L40.6674 47.2969H40.6306L38.2373 48.6822Z" fill="#CA4300"/>
<path d="M38.7849 51.7198C38.7373 51.7473 38.7026 51.7925 38.6884 51.8456C38.6741 51.8987 38.6815 51.9552 38.709 52.0028C38.7365 52.0504 38.7817 52.0852 38.8348 52.0994C38.8879 52.1137 38.9445 52.1062 38.9921 52.0788L41.2933 50.7579L41.215 50.3345H41.169L38.7849 51.7198Z" fill="#CA4300"/>
<path d="M41.6568 53.1289L39.2636 54.5096C39.24 54.5232 39.2193 54.5413 39.2028 54.5629C39.1862 54.5845 39.174 54.6091 39.167 54.6354C39.1599 54.6617 39.1581 54.6891 39.1617 54.7161C39.1652 54.7431 39.174 54.7691 39.1876 54.7927C39.2012 54.8163 39.2193 54.8369 39.2409 54.8535C39.2625 54.8701 39.2872 54.8822 39.3134 54.8893C39.3397 54.8963 39.3671 54.8981 39.3941 54.8946C39.4211 54.891 39.4471 54.8822 39.4707 54.8686L41.8225 53.5247L41.7443 53.1151C41.7145 53.1133 41.6846 53.1181 41.6568 53.1289Z" fill="#CA4300"/>
<path d="M39.8251 57.4365C39.8015 57.4501 39.7809 57.4682 39.7643 57.4898C39.7477 57.5114 39.7356 57.536 39.7285 57.5623C39.7215 57.5886 39.7197 57.616 39.7232 57.643C39.7267 57.67 39.7356 57.696 39.7492 57.7196C39.7628 57.7431 39.7809 57.7638 39.8025 57.7804C39.824 57.797 39.8487 57.8091 39.875 57.8162C39.9012 57.8232 39.9287 57.825 39.9556 57.8215C39.9826 57.8179 40.0086 57.8091 40.0322 57.7955L42.3702 56.4562L42.292 56.042C42.2659 56.0465 42.241 56.0559 42.2183 56.0696L39.8251 57.4365Z" fill="#CA4300"/>
<path d="M52.9926 41.1851C52.9926 41.1851 53.1214 41.857 54.1385 41.9721C55.1557 42.0871 55.5193 41.6959 55.5193 41.6959L55.1879 36.6333L52.9926 41.1851Z" fill="#FFD8BD"/>
<path d="M55.1741 36.6562L54.1616 38.7595C54.3062 38.9168 54.501 39.0189 54.7126 39.0483C54.9242 39.0777 55.1394 39.0325 55.3214 38.9206L55.1741 36.6562Z" fill="#653200"/>
<path d="M47.2534 36.5043C47.2534 36.5043 47.4881 37.1486 48.5099 37.1026C49.5316 37.0565 49.8123 36.6147 49.8123 36.6147L48.6894 31.6855L47.2534 36.5043Z" fill="#FFD8BD"/>
<path d="M48.6893 31.6855L48.022 33.9223C48.1897 34.0557 48.3987 34.1264 48.6129 34.1222C48.8272 34.118 49.0332 34.0391 49.1956 33.8993L48.6893 31.6855Z" fill="#653200"/>
<path d="M45.463 59.5945C39.4799 59.5945 34.5646 58.0803 34.1135 56.1611C34.4127 58.4623 36.4561 74.2577 36.5344 74.3498C36.5344 74.3498 37.5791 78.8049 45.463 78.8003C52.1687 78.8003 54.0833 75.4314 54.0833 75.4314L56.8033 56.1979C56.2741 58.1033 51.4139 59.5945 45.463 59.5945Z" fill="#173743"/>
<path d="M62.9214 25.7688C62.9214 25.6515 62.8994 25.5342 62.8554 25.4169C62.8261 25.2996 62.8114 25.1676 62.8114 25.021C62.8114 24.9623 62.8187 24.8817 62.8334 24.779C62.8627 24.6764 62.8994 24.5664 62.9434 24.4491C62.9287 24.1558 62.914 23.6719 62.8994 22.9974C62.8994 22.3229 62.8994 21.5971 62.8994 20.8199C62.8994 20.6293 62.8994 20.4313 62.8994 20.2261C62.914 20.0061 62.9434 19.8081 62.9874 19.6322C63.046 19.4562 63.1267 19.3096 63.2293 19.1923C63.3319 19.075 63.4859 19.0163 63.6912 19.0163C63.9112 19.0163 64.1164 19.0457 64.3071 19.1043C64.5123 19.163 64.7323 19.1923 64.9669 19.1923C65.2895 19.1923 65.6634 19.1923 66.0887 19.1923C66.5139 19.1776 66.9465 19.1703 67.3864 19.1703C67.8409 19.1703 68.2808 19.1703 68.7061 19.1703C69.1313 19.1556 69.5052 19.1483 69.8278 19.1483C70.2677 19.1483 70.5683 19.1923 70.7296 19.2803C70.9056 19.3682 70.9935 19.6249 70.9935 20.0501C70.9935 20.2994 70.9276 20.5486 70.7956 20.7979C70.6636 21.0325 70.5023 21.1498 70.3117 21.1498C69.3292 21.1498 68.4861 21.1498 67.7823 21.1498C67.0931 21.1352 66.5066 21.1278 66.0227 21.1278C65.5534 21.1132 65.1795 21.1059 64.9009 21.1059C64.6223 21.0912 64.4024 21.0839 64.2411 21.0839C64.2411 21.2452 64.2337 21.4578 64.2191 21.7217C64.2191 21.9857 64.2191 22.2643 64.2191 22.5575C64.2191 22.8361 64.2117 23.1074 64.1971 23.3713C64.1971 23.6353 64.1971 23.8552 64.1971 24.0312L67.9802 23.9872C68.1855 23.9872 68.3615 24.0678 68.5081 24.2291C68.6547 24.3758 68.7281 24.6324 68.7281 24.999C68.7281 25.0576 68.7134 25.1456 68.6841 25.2629C68.6694 25.3655 68.6327 25.4755 68.5741 25.5928C68.5301 25.6955 68.4641 25.7908 68.3761 25.8788C68.2882 25.9521 68.1855 25.9887 68.0682 25.9887C67.511 25.9887 67.0344 25.9887 66.6385 25.9887C66.2426 25.9887 65.9054 25.9887 65.6268 25.9887C65.3628 25.9741 65.1429 25.9667 64.9669 25.9667C64.8056 25.9667 64.6736 25.9667 64.571 25.9667C64.3804 25.9667 64.2631 25.9741 64.2191 25.9887L64.2851 29.244C65.1649 29.244 66.0593 29.2733 66.9685 29.332C67.8776 29.376 68.816 29.398 69.7838 29.398C70.0771 29.398 70.2604 29.5226 70.3337 29.7719C70.4217 30.0212 70.4657 30.2924 70.4657 30.5857C70.4657 30.9963 70.3557 31.2749 70.1357 31.4215C69.9158 31.5681 69.6665 31.6414 69.3879 31.6414C69.1093 31.6414 68.86 31.6268 68.6401 31.5975C68.4201 31.5828 68.1855 31.5608 67.9362 31.5315C67.687 31.5168 67.3864 31.4948 67.0344 31.4655C66.6825 31.4508 66.2353 31.4435 65.6927 31.4435C65.3848 31.4435 65.0696 31.4582 64.747 31.4875C64.4244 31.5315 64.0798 31.5535 63.7132 31.5535C63.4639 31.5535 63.2513 31.4362 63.0753 31.2015C62.914 30.9523 62.8407 30.637 62.8554 30.2558L62.9214 25.7688Z" fill="#0076B5"/>
<path d="M72.7774 29.8819C72.7774 29.7939 72.792 29.6912 72.8214 29.5739C72.8653 29.442 72.9167 29.3246 72.9753 29.222C73.0486 29.1047 73.122 29.0094 73.1953 28.9361C73.2686 28.8481 73.3492 28.8041 73.4372 28.8041C73.4959 28.8041 73.5765 28.8701 73.6792 29.0021C73.8111 29.178 73.9358 29.3173 74.0531 29.42C74.185 29.5079 74.317 29.5813 74.449 29.6399C74.5956 29.6986 74.7569 29.7352 74.9329 29.7499C75.1235 29.7645 75.3434 29.7719 75.5927 29.7719C75.8713 29.7719 76.1646 29.7425 76.4725 29.6839C76.7804 29.6252 77.0591 29.5593 77.3083 29.4859C77.5576 29.4126 77.7629 29.332 77.9242 29.244C78.1001 29.156 78.1881 29.09 78.1881 29.046C78.1881 28.8994 78.0415 28.7821 77.7482 28.6941C77.4696 28.5915 77.1104 28.4962 76.6705 28.4082C76.2306 28.3202 75.7613 28.2102 75.2628 28.0783C74.7642 27.9463 74.295 27.7703 73.8551 27.5504C73.4152 27.3158 73.0486 27.0225 72.7554 26.6706C72.4768 26.304 72.3375 25.8421 72.3375 25.2849C72.3375 24.669 72.4621 24.1265 72.7114 23.6573C72.9753 23.1734 73.3126 22.7701 73.7231 22.4475C74.1337 22.1103 74.5883 21.861 75.0868 21.6997C75.5854 21.5238 76.0766 21.4358 76.5605 21.4358C77.2497 21.4358 77.7996 21.6264 78.2101 22.0076C78.6207 22.3889 78.826 22.8288 78.826 23.3273C78.826 23.5033 78.8187 23.6939 78.804 23.8992C78.804 24.1045 78.782 24.3025 78.738 24.4931C78.694 24.669 78.628 24.823 78.54 24.955C78.4521 25.0723 78.3201 25.1309 78.1441 25.1309C77.9828 25.1309 77.8802 25.0503 77.8362 24.889C77.7922 24.7277 77.7702 24.5224 77.7702 24.2731C77.7702 23.9359 77.6383 23.7086 77.3743 23.5913C77.125 23.474 76.7731 23.4153 76.3186 23.4153C76.0693 23.4153 75.7907 23.4666 75.4827 23.5693C75.1895 23.6573 74.9109 23.7892 74.6469 23.9652C74.383 24.1265 74.1557 24.3171 73.9651 24.5371C73.7891 24.7424 73.7012 24.955 73.7012 25.1749C73.7012 25.4389 73.8405 25.6368 74.1191 25.7688C74.4123 25.8861 74.7789 25.9887 75.2188 26.0767C75.6587 26.1647 76.1279 26.26 76.6265 26.3627C77.125 26.4506 77.5943 26.5899 78.0342 26.7806C78.4741 26.9712 78.8333 27.2351 79.1119 27.5724C79.4052 27.9096 79.5518 28.3642 79.5518 28.9361C79.5518 29.4493 79.3905 29.8892 79.0679 30.2558C78.7453 30.6077 78.3568 30.8936 77.9022 31.1136C77.4623 31.3335 77.0004 31.4875 76.5165 31.5755C76.0473 31.6781 75.666 31.7294 75.3728 31.7294C75.1528 31.7294 74.8962 31.7074 74.6029 31.6634C74.3097 31.6341 74.0237 31.5535 73.7451 31.4215C73.4812 31.2895 73.2539 31.1062 73.0633 30.8716C72.8727 30.6223 72.7774 30.2924 72.7774 29.8819Z" fill="#0076B5"/>
<path d="M81.2652 27.7483C81.2652 26.9272 81.3605 26.1574 81.5511 25.4389C81.7564 24.7057 82.0497 24.0678 82.4309 23.5253C82.8268 22.9828 83.3107 22.5575 83.8826 22.2496C84.4545 21.927 85.1143 21.7657 85.8621 21.7657C86.2141 21.7657 86.544 21.8317 86.8519 21.9637C87.1745 22.0956 87.4531 22.2789 87.6877 22.5135C87.937 22.7481 88.1276 23.0267 88.2596 23.3493C88.4062 23.6719 88.4795 24.0239 88.4795 24.4051C88.4795 24.4931 88.4722 24.6031 88.4576 24.735C88.4429 24.8523 88.4136 24.9696 88.3696 25.0869C88.3402 25.2043 88.2963 25.3069 88.2376 25.3949C88.1789 25.4682 88.1056 25.5048 88.0177 25.5048C87.8417 25.5048 87.7024 25.4169 87.5997 25.2409C87.4971 25.0649 87.3651 24.867 87.2038 24.647C87.0572 24.4271 86.8519 24.2291 86.588 24.0532C86.3387 23.8772 85.9795 23.7892 85.5102 23.7892C85.085 23.7892 84.6891 23.8846 84.3225 24.0752C83.9706 24.2658 83.6626 24.5224 83.3987 24.845C83.1494 25.1529 82.9515 25.5122 82.8048 25.9228C82.6729 26.3187 82.6069 26.7292 82.6069 27.1545C82.6069 27.653 82.6729 28.0636 82.8048 28.3862C82.9515 28.6941 83.1714 28.9434 83.4647 29.134C83.7726 29.31 84.1539 29.4346 84.6084 29.5079C85.063 29.5666 85.5982 29.5959 86.2141 29.5959C86.39 29.5959 86.5367 29.5813 86.654 29.5519C86.7859 29.5079 86.9032 29.4639 87.0059 29.42C87.1232 29.376 87.2332 29.332 87.3358 29.288C87.4531 29.2293 87.5851 29.178 87.7317 29.134C87.7904 29.134 87.8637 29.156 87.9517 29.2C88.0396 29.2293 88.1276 29.2953 88.2156 29.398C88.3036 29.4859 88.3769 29.6106 88.4356 29.7719C88.4942 29.9185 88.5235 30.1091 88.5235 30.3437C88.5235 30.593 88.4209 30.8423 88.2156 31.0916C88.025 31.3262 87.849 31.4435 87.6877 31.4435H87.0939C86.7419 31.4435 86.4047 31.4582 86.0821 31.4875C85.7742 31.5168 85.4442 31.5315 85.0923 31.5315C84.5644 31.5315 84.0659 31.4728 83.5967 31.3555C83.1421 31.2382 82.7389 31.0403 82.3869 30.7617C82.0497 30.4684 81.7784 30.0798 81.5731 29.5959C81.3678 29.0974 81.2652 28.4815 81.2652 27.7483Z" fill="#0076B5"/>
<path d="M90.1367 26.7586C90.1367 25.8348 90.2614 25.0503 90.5106 24.4051C90.7599 23.7599 91.0898 23.2394 91.5004 22.8435C91.911 22.4329 92.3729 22.1396 92.8861 21.9637C93.3993 21.773 93.9199 21.6777 94.4477 21.6777C95.6648 21.6777 96.6106 22.1396 97.2851 23.0634C97.9596 23.9725 98.2969 25.2043 98.2969 26.7586C98.2969 27.4917 98.1796 28.1589 97.945 28.7601C97.7103 29.3466 97.4024 29.8599 97.0212 30.2998C96.6399 30.725 96.2 31.0549 95.7015 31.2895C95.2176 31.5241 94.719 31.6414 94.2058 31.6414C93.6486 31.6414 93.1207 31.4948 92.6222 31.2015C92.1383 30.8936 91.7057 30.505 91.3245 30.0358C90.9579 29.5666 90.6646 29.046 90.4447 28.4742C90.2394 27.8876 90.1367 27.3158 90.1367 26.7586ZM94.0958 29.7719C94.4624 29.7719 94.8143 29.7059 95.1516 29.5739C95.5035 29.4273 95.8114 29.222 96.0754 28.9581C96.354 28.6941 96.5739 28.3715 96.7352 27.9903C96.8965 27.609 96.9772 27.1691 96.9772 26.6706C96.9772 26.216 96.9185 25.7981 96.8012 25.4169C96.6839 25.0356 96.5226 24.713 96.3173 24.4491C96.112 24.1705 95.8701 23.9579 95.5915 23.8112C95.3129 23.6646 95.0123 23.5913 94.6897 23.5913C94.3084 23.5913 93.9199 23.6573 93.524 23.7892C93.1427 23.9065 92.7981 24.0898 92.4902 24.3391C92.1823 24.5737 91.9257 24.8817 91.7204 25.2629C91.5297 25.6295 91.4344 26.0547 91.4344 26.5386C91.4344 26.9345 91.5078 27.3304 91.6544 27.7263C91.801 28.1076 91.999 28.4522 92.2482 28.7601C92.4975 29.068 92.7835 29.3173 93.1061 29.5079C93.4286 29.6839 93.7586 29.7719 94.0958 29.7719Z" fill="#0076B5"/>
<path d="M100.899 17.8946C100.899 17.484 100.958 17.1321 101.075 16.8388C101.192 16.5456 101.383 16.3989 101.647 16.3989C101.838 16.3989 101.984 16.5089 102.087 16.7288C102.19 16.9341 102.241 17.1394 102.241 17.3447L102.109 27.0445C102.109 27.3524 102.109 27.6604 102.109 27.9683C102.124 28.2762 102.153 28.5548 102.197 28.8041C102.241 29.0387 102.299 29.2293 102.373 29.376C102.461 29.5226 102.571 29.5959 102.703 29.5959C102.791 29.5959 102.864 29.5739 102.923 29.5299C102.996 29.4713 103.062 29.4126 103.121 29.354C103.179 29.2953 103.238 29.244 103.297 29.2C103.37 29.1414 103.451 29.112 103.539 29.112C103.744 29.112 103.883 29.2147 103.956 29.42C104.044 29.6252 104.088 29.8379 104.088 30.0578C104.088 30.2778 104.037 30.4757 103.934 30.6517C103.832 30.813 103.707 30.9596 103.561 31.0916C103.429 31.2089 103.282 31.3042 103.121 31.3775C102.959 31.4362 102.813 31.4655 102.681 31.4655C101.992 31.4655 101.5 31.2529 101.207 30.8276C100.914 30.3877 100.775 29.7719 100.789 28.9801L100.899 17.8946Z" fill="#0076B5"/>
<path d="M104.864 27.6384C104.864 26.9199 104.989 26.2087 105.238 25.5048C105.488 24.7863 105.832 24.1485 106.272 23.5913C106.712 23.0194 107.218 22.5649 107.79 22.2276C108.376 21.8757 108.999 21.6997 109.659 21.6997C110.158 21.6997 110.627 21.817 111.067 22.0516C111.522 22.2862 111.91 22.5942 112.233 22.9754C112.555 23.342 112.812 23.7672 113.003 24.2511C113.193 24.7204 113.289 25.1896 113.289 25.6588C113.289 25.9081 113.274 26.15 113.245 26.3846C113.215 26.6046 113.179 26.8319 113.135 27.0665C113.105 27.2864 113.076 27.5211 113.047 27.7703C113.017 28.0196 113.003 28.2982 113.003 28.6061C113.003 29.0167 113.061 29.3026 113.179 29.4639C113.296 29.6252 113.464 29.7059 113.684 29.7059C113.816 29.7059 113.941 29.6326 114.058 29.4859C114.19 29.3393 114.308 29.2513 114.41 29.222C114.792 29.222 114.982 29.5006 114.982 30.0578C114.982 30.2338 114.945 30.4097 114.872 30.5857C114.799 30.7617 114.696 30.9229 114.564 31.0696C114.432 31.2015 114.278 31.3189 114.102 31.4215C113.926 31.5095 113.736 31.5535 113.53 31.5535C113.325 31.5535 113.12 31.4948 112.915 31.3775C112.724 31.2602 112.548 31.1136 112.387 30.9376C112.225 30.747 112.093 30.5344 111.991 30.2998C111.888 30.0505 111.837 29.7939 111.837 29.5299C111.397 30.0871 110.898 30.5784 110.341 31.0036C109.799 31.4288 109.197 31.6414 108.538 31.6414C108.112 31.6414 107.68 31.5388 107.24 31.3335C106.815 31.1282 106.426 30.8496 106.074 30.4977C105.722 30.1311 105.429 29.7059 105.194 29.222C104.974 28.7234 104.864 28.1956 104.864 27.6384ZM106.228 27.5724C106.228 27.895 106.301 28.1882 106.448 28.4522C106.609 28.7161 106.815 28.9434 107.064 29.134C107.328 29.31 107.614 29.4493 107.922 29.5519C108.244 29.6546 108.56 29.7059 108.868 29.7059C109.513 29.7059 110.026 29.5666 110.407 29.288C110.788 28.9947 111.089 28.6355 111.309 28.2102C111.529 27.7703 111.683 27.3011 111.771 26.8026C111.859 26.2893 111.939 25.8054 112.013 25.3509C112.013 25.1896 111.932 25.0136 111.771 24.823C111.624 24.6177 111.441 24.4344 111.221 24.2731C111.001 24.0972 110.759 23.9505 110.495 23.8332C110.246 23.7159 110.019 23.6573 109.813 23.6573C109.271 23.6573 108.78 23.7746 108.34 24.0092C107.9 24.2438 107.518 24.5517 107.196 24.933C106.888 25.2996 106.646 25.7175 106.47 26.1867C106.309 26.6559 106.228 27.1178 106.228 27.5724Z" fill="#0076B5"/>
<path d="M88.778 49.0141C88.778 48.9261 88.7927 48.8088 88.822 48.6621C88.866 48.5008 88.9173 48.3469 88.976 48.2002C89.0346 48.0536 89.108 47.929 89.1959 47.8263C89.2839 47.709 89.3719 47.6504 89.4599 47.6504C89.5039 47.6504 89.5845 47.7677 89.7018 48.0023C89.8485 48.3102 89.9878 48.5448 90.1197 48.7061C90.2517 48.8674 90.3837 48.9921 90.5156 49.08C90.6623 49.1534 90.8236 49.1974 90.9995 49.212C91.1902 49.2267 91.4101 49.234 91.6594 49.234C91.9673 49.234 92.2826 49.19 92.6052 49.102C92.9278 48.9994 93.221 48.8748 93.485 48.7281C93.7489 48.5668 93.9689 48.3982 94.1448 48.2222C94.3208 48.0316 94.4087 47.8557 94.4087 47.6944C94.4087 47.4158 94.2548 47.2031 93.9469 47.0565C93.6536 46.9099 93.2797 46.7779 92.8251 46.6606C92.3852 46.5433 91.9013 46.4187 91.3734 46.2867C90.8456 46.1547 90.3543 45.9788 89.8998 45.7588C89.4599 45.5242 89.086 45.2163 88.778 44.835C88.4848 44.4538 88.3381 43.9479 88.3381 43.3174C88.3381 42.5989 88.4701 41.9537 88.734 41.3818C89.0126 40.8099 89.3572 40.3334 89.7678 39.9521C90.193 39.5709 90.6623 39.2776 91.1755 39.0723C91.7034 38.867 92.2239 38.7644 92.7371 38.7644C93.0891 38.7644 93.4043 38.8304 93.6829 38.9624C93.9615 39.0797 94.2035 39.2483 94.4087 39.4682C94.614 39.6735 94.768 39.9155 94.8706 40.1941C94.988 40.4727 95.0466 40.7586 95.0466 41.0519C95.0466 41.2425 95.0393 41.4478 95.0246 41.6677C95.0099 41.873 94.9806 42.0636 94.9366 42.2396C94.8926 42.4156 94.8193 42.5622 94.7167 42.6795C94.6287 42.7968 94.5041 42.8555 94.3428 42.8555C94.1375 42.8555 94.0128 42.7602 93.9689 42.5695C93.9395 42.3789 93.9249 42.159 93.9249 41.9097C93.9249 41.4405 93.7929 41.1252 93.529 40.9639C93.265 40.7879 92.9131 40.7 92.4732 40.7C92.2239 40.7 91.938 40.7659 91.6154 40.8979C91.3075 41.0299 91.0069 41.2132 90.7136 41.4478C90.435 41.6677 90.193 41.9243 89.9878 42.2176C89.7971 42.5109 89.7018 42.8115 89.7018 43.1194C89.7018 43.442 89.8485 43.6913 90.1417 43.8672C90.4497 44.0285 90.8309 44.1678 91.2855 44.2851C91.74 44.3878 92.2239 44.4978 92.7371 44.6151C93.265 44.7177 93.7562 44.8863 94.2108 45.121C94.6654 45.3409 95.0393 45.6415 95.3325 46.0227C95.6405 46.404 95.7944 46.9245 95.7944 47.5844C95.7944 48.2442 95.6185 48.8088 95.2666 49.278C94.9293 49.7326 94.5261 50.1065 94.0568 50.3997C93.5876 50.6784 93.1037 50.8836 92.6052 51.0156C92.1213 51.1329 91.7327 51.1916 91.4394 51.1916C91.2195 51.1916 90.9555 51.1696 90.6476 51.1256C90.3397 51.0816 90.0464 50.9863 89.7678 50.8396C89.5039 50.693 89.2693 50.4731 89.064 50.1798C88.8733 49.8865 88.778 49.498 88.778 49.0141Z" fill="#0076B5"/>
<path d="M97.6729 46.3967C97.6729 45.4729 97.7976 44.6884 98.0469 44.0432C98.2961 43.398 98.6261 42.8775 99.0366 42.4816C99.4472 42.071 99.9091 41.7777 100.422 41.6018C100.936 41.4111 101.456 41.3158 101.984 41.3158C103.201 41.3158 104.147 41.7777 104.821 42.7015C105.496 43.6106 105.833 44.8423 105.833 46.3967C105.833 47.1298 105.716 47.797 105.481 48.3982C105.247 48.9847 104.939 49.498 104.557 49.9379C104.176 50.3631 103.736 50.693 103.238 50.9276C102.754 51.1622 102.255 51.2795 101.742 51.2795C101.185 51.2795 100.657 51.1329 100.158 50.8396C99.6745 50.5317 99.2419 50.1431 98.8607 49.6739C98.4941 49.2047 98.2008 48.6841 97.9809 48.1123C97.7756 47.5257 97.6729 46.9539 97.6729 46.3967ZM101.632 49.41C101.999 49.41 102.351 49.344 102.688 49.212C103.04 49.0654 103.348 48.8601 103.612 48.5962C103.89 48.3322 104.11 48.0096 104.271 47.6284C104.433 47.2471 104.513 46.8072 104.513 46.3087C104.513 45.8541 104.455 45.4362 104.337 45.055C104.22 44.6737 104.059 44.3511 103.854 44.0872C103.648 43.8086 103.406 43.596 103.128 43.4493C102.849 43.3027 102.548 43.2294 102.226 43.2294C101.845 43.2294 101.456 43.2954 101.06 43.4273C100.679 43.5446 100.334 43.7279 100.026 43.9772C99.7185 44.2118 99.4619 44.5198 99.2566 44.901C99.066 45.2676 98.9706 45.6928 98.9706 46.1767C98.9706 46.5726 99.044 46.9685 99.1906 47.3644C99.3372 47.7457 99.5352 48.0903 99.7845 48.3982C100.034 48.7061 100.32 48.9554 100.642 49.146C100.965 49.322 101.295 49.41 101.632 49.41Z" fill="#0076B5"/>
<path d="M108.435 37.5327C108.435 37.1221 108.494 36.7702 108.611 36.4769C108.729 36.1837 108.919 36.037 109.183 36.037C109.374 36.037 109.52 36.147 109.623 36.3669C109.726 36.5722 109.777 36.7775 109.777 36.9828L109.645 46.6826C109.645 46.9905 109.645 47.2985 109.645 47.6064C109.66 47.9143 109.689 48.1929 109.733 48.4422C109.777 48.6768 109.836 48.8674 109.909 49.0141C109.997 49.1607 110.107 49.234 110.239 49.234C110.327 49.234 110.4 49.212 110.459 49.168C110.532 49.1094 110.598 49.0507 110.657 48.9921C110.716 48.9334 110.774 48.8821 110.833 48.8381C110.906 48.7794 110.987 48.7501 111.075 48.7501C111.28 48.7501 111.419 48.8528 111.493 49.0581C111.581 49.2633 111.625 49.476 111.625 49.6959C111.625 49.9159 111.573 50.1138 111.471 50.2898C111.368 50.4511 111.243 50.5977 111.097 50.7297C110.965 50.847 110.818 50.9423 110.657 51.0156C110.496 51.0743 110.349 51.1036 110.217 51.1036C109.528 51.1036 109.037 50.891 108.743 50.4657C108.45 50.0258 108.311 49.41 108.325 48.6182L108.435 37.5327Z" fill="#0076B5"/>
<path d="M114.534 39.2043C114.432 39.2043 114.314 39.1896 114.182 39.1603C114.05 39.131 113.926 39.0797 113.808 39.0063C113.691 38.9184 113.588 38.8084 113.5 38.6764C113.427 38.5298 113.39 38.3392 113.39 38.1046C113.39 37.9433 113.42 37.782 113.478 37.6207C113.552 37.4594 113.64 37.3201 113.742 37.2028C113.845 37.0708 113.955 36.9681 114.072 36.8948C114.204 36.8068 114.329 36.7629 114.446 36.7629C114.681 36.7629 114.908 36.8435 115.128 37.0048C115.363 37.1661 115.48 37.4814 115.48 37.9506C115.48 38.7864 115.165 39.2043 114.534 39.2043ZM113.302 50.2678C113.288 50.1945 113.266 50.0185 113.236 49.7399C113.222 49.4466 113.214 48.9261 113.214 48.1783C113.214 47.885 113.214 47.5111 113.214 47.0565C113.214 46.5873 113.222 46.1034 113.236 45.6048C113.266 45.0916 113.302 44.5784 113.346 44.0652C113.405 43.552 113.471 43.0901 113.544 42.6795C113.632 42.2689 113.742 41.939 113.874 41.6897C114.006 41.4258 114.168 41.2938 114.358 41.2938C114.593 41.2938 114.732 41.3965 114.776 41.6018C114.835 41.807 114.864 42.049 114.864 42.3276C114.835 42.9434 114.791 43.64 114.732 44.4171C114.673 45.1796 114.644 45.9274 114.644 46.6606C114.644 47.2031 114.688 47.8043 114.776 48.4642C114.864 49.1094 114.908 49.6886 114.908 50.2018C114.908 50.5537 114.835 50.825 114.688 51.0156C114.541 51.1916 114.388 51.2795 114.226 51.2795C113.977 51.2795 113.779 51.2062 113.632 51.0596C113.486 50.913 113.376 50.649 113.302 50.2678Z" fill="#0076B5"/>
<path d="M116.703 46.7486C116.703 46.0594 116.806 45.3922 117.011 44.747C117.216 44.0872 117.51 43.508 117.891 43.0094C118.287 42.4962 118.771 42.093 119.343 41.7997C119.915 41.4918 120.567 41.3378 121.3 41.3378C121.916 41.3378 122.459 41.5064 122.928 41.8437C123.397 42.181 123.661 42.6282 123.72 43.1854C123.72 43.0241 123.72 42.7968 123.72 42.5035C123.72 42.1956 123.72 41.851 123.72 41.4698C123.734 41.0885 123.742 40.7 123.742 40.3041C123.742 39.8935 123.742 39.4976 123.742 39.1163C123.756 38.7351 123.764 38.3978 123.764 38.1046C123.764 37.7966 123.764 37.562 123.764 37.4007C123.764 36.6969 124.02 36.345 124.533 36.345C124.739 36.345 124.878 36.4476 124.951 36.6529C125.039 36.8582 125.083 37.0781 125.083 37.3127C125.083 37.43 125.083 37.6353 125.083 37.9286C125.083 38.2072 125.076 38.5078 125.061 38.8304C125.061 39.1383 125.061 39.4316 125.061 39.7102C125.061 39.9888 125.061 40.1941 125.061 40.326C125.032 41.3671 125.01 42.2543 124.995 42.9874C124.981 43.7059 124.966 44.2998 124.951 44.769C124.951 45.2383 124.944 45.6048 124.929 45.8688C124.929 46.1327 124.929 46.3307 124.929 46.4626C124.929 46.58 124.929 46.6533 124.929 46.6826C124.929 46.7119 124.929 46.7339 124.929 46.7486L124.907 48.4862C124.907 48.8674 124.893 49.2267 124.863 49.5639C124.849 49.8865 124.812 50.1725 124.753 50.4217C124.695 50.6564 124.607 50.847 124.489 50.9936C124.372 51.1402 124.218 51.2136 124.028 51.2136C123.866 51.2136 123.734 51.0963 123.632 50.8616C123.529 50.627 123.441 50.3997 123.368 50.1798C123.192 50.3558 122.972 50.5097 122.708 50.6417C122.444 50.759 122.173 50.8616 121.894 50.9496C121.615 51.0229 121.337 51.0816 121.058 51.1256C120.794 51.1696 120.567 51.1916 120.376 51.1916C119.761 51.1916 119.218 51.0889 118.749 50.8836C118.294 50.6637 117.913 50.3558 117.605 49.9598C117.297 49.5639 117.07 49.0947 116.923 48.5522C116.777 48.0096 116.703 47.4084 116.703 46.7486ZM118.111 46.6826C118.111 47.5331 118.353 48.2002 118.837 48.6841C119.321 49.1534 119.915 49.388 120.618 49.388C121.044 49.388 121.425 49.344 121.762 49.256C122.099 49.1534 122.385 49.0361 122.62 48.9041C122.855 48.7721 123.038 48.6328 123.17 48.4862C123.316 48.3396 123.404 48.2076 123.434 48.0903C123.507 47.841 123.544 47.5771 123.544 47.2985C123.558 47.0199 123.566 46.7486 123.566 46.4846V45.8908C123.566 45.5389 123.5 45.2089 123.368 44.901C123.25 44.5784 123.089 44.2925 122.884 44.0432C122.679 43.7939 122.437 43.596 122.158 43.4493C121.894 43.3027 121.615 43.2294 121.322 43.2294C120.824 43.2294 120.376 43.3174 119.98 43.4933C119.585 43.6546 119.247 43.8892 118.969 44.1972C118.69 44.5051 118.478 44.8717 118.331 45.2969C118.184 45.7221 118.111 46.184 118.111 46.6826Z" fill="#0076B5"/>
<path d="M127.057 47.2765C127.057 46.558 127.182 45.8468 127.431 45.1429C127.681 44.4244 128.025 43.7866 128.465 43.2294C128.905 42.6575 129.411 42.203 129.983 41.8657C130.569 41.5138 131.192 41.3378 131.852 41.3378C132.351 41.3378 132.82 41.4551 133.26 41.6897C133.715 41.9243 134.103 42.2323 134.426 42.6135C134.748 42.9801 135.005 43.4053 135.196 43.8892C135.386 44.3585 135.481 44.8277 135.481 45.2969C135.481 45.5462 135.467 45.7881 135.437 46.0227C135.408 46.2427 135.371 46.47 135.327 46.7046C135.298 46.9245 135.269 47.1592 135.24 47.4084C135.21 47.6577 135.196 47.9363 135.196 48.2442C135.196 48.6548 135.254 48.9407 135.371 49.102C135.489 49.2633 135.657 49.344 135.877 49.344C136.009 49.344 136.134 49.2707 136.251 49.124C136.383 48.9774 136.501 48.8894 136.603 48.8601C136.984 48.8601 137.175 49.1387 137.175 49.6959C137.175 49.8719 137.138 50.0478 137.065 50.2238C136.992 50.3997 136.889 50.561 136.757 50.7077C136.625 50.8396 136.471 50.957 136.295 51.0596C136.119 51.1476 135.929 51.1916 135.723 51.1916C135.518 51.1916 135.313 51.1329 135.108 51.0156C134.917 50.8983 134.741 50.7517 134.58 50.5757C134.418 50.3851 134.286 50.1725 134.184 49.9379C134.081 49.6886 134.03 49.432 134.03 49.168C133.59 49.7252 133.091 50.2165 132.534 50.6417C131.992 51.0669 131.39 51.2795 130.731 51.2795C130.305 51.2795 129.873 51.1769 129.433 50.9716C129.008 50.7663 128.619 50.4877 128.267 50.1358C127.915 49.7692 127.622 49.344 127.387 48.8601C127.167 48.3615 127.057 47.8337 127.057 47.2765ZM128.421 47.2105C128.421 47.5331 128.494 47.8263 128.641 48.0903C128.802 48.3542 129.008 48.5815 129.257 48.7721C129.521 48.9481 129.807 49.0874 130.115 49.19C130.437 49.2927 130.753 49.344 131.06 49.344C131.706 49.344 132.219 49.2047 132.6 48.9261C132.981 48.6328 133.282 48.2736 133.502 47.8483C133.722 47.4084 133.876 46.9392 133.964 46.4406C134.052 45.9274 134.132 45.4435 134.206 44.989C134.206 44.8277 134.125 44.6517 133.964 44.4611C133.817 44.2558 133.634 44.0725 133.414 43.9112C133.194 43.7353 132.952 43.5886 132.688 43.4713C132.439 43.354 132.212 43.2954 132.006 43.2954C131.464 43.2954 130.972 43.4127 130.533 43.6473C130.093 43.8819 129.711 44.1898 129.389 44.5711C129.081 44.9377 128.839 45.3556 128.663 45.8248C128.502 46.294 128.421 46.7559 128.421 47.2105ZM132.006 40.1281C131.786 40.1281 131.647 40.0694 131.588 39.9521C131.53 39.8348 131.5 39.6735 131.5 39.4682V39.1823C131.5 38.933 131.552 38.7351 131.654 38.5884C131.772 38.4418 131.911 38.2952 132.072 38.1485C132.248 37.9872 132.424 37.7673 132.6 37.4887C132.791 37.1954 132.981 36.9168 133.172 36.6529C133.363 36.3743 133.561 36.1397 133.766 35.949C133.971 35.7438 134.176 35.6411 134.382 35.6411C134.587 35.6411 134.763 35.7218 134.91 35.8831C135.056 36.0444 135.13 36.279 135.13 36.5869C135.13 36.6602 135.071 36.7995 134.954 37.0048C134.836 37.2101 134.682 37.4447 134.492 37.7086C134.316 37.9726 134.11 38.2439 133.876 38.5225C133.656 38.8011 133.429 39.065 133.194 39.3143C132.959 39.5489 132.739 39.7468 132.534 39.9081C132.329 40.0548 132.153 40.1281 132.006 40.1281Z" fill="#0076B5"/>
<path d="M138.517 49.8719C138.517 49.5346 138.517 49.2633 138.517 49.0581C138.532 48.8381 138.539 48.6548 138.539 48.5082V47.8923C138.539 47.7017 138.539 47.5184 138.539 47.3424C138.539 47.1518 138.547 46.8806 138.561 46.5286C138.591 46.1767 138.62 45.6928 138.649 45.077C138.693 44.4611 138.759 43.6106 138.847 42.5255C138.877 42.203 138.95 41.9463 139.067 41.7557C139.184 41.5504 139.368 41.4478 139.617 41.4478C139.734 41.4478 139.859 41.5284 139.991 41.6897C140.123 41.8364 140.189 42.1296 140.189 42.5695C140.189 42.6428 140.189 42.7235 140.189 42.8115C140.189 42.8848 140.182 42.9728 140.167 43.0754C140.27 42.7382 140.431 42.4522 140.651 42.2176C140.885 41.983 141.142 41.7924 141.421 41.6457C141.699 41.4991 141.985 41.3965 142.278 41.3378C142.572 41.2645 142.843 41.2278 143.092 41.2278C143.283 41.2278 143.503 41.2498 143.752 41.2938C144.016 41.3232 144.258 41.3965 144.478 41.5138C144.713 41.6164 144.903 41.7777 145.05 41.9977C145.211 42.203 145.292 42.4816 145.292 42.8335C145.292 43.1561 145.233 43.42 145.116 43.6253C144.998 43.8306 144.83 43.9332 144.61 43.9332C144.434 43.9332 144.317 43.8966 144.258 43.8232C144.214 43.7353 144.155 43.64 144.082 43.5373C144.023 43.4347 143.928 43.3467 143.796 43.2734C143.664 43.1854 143.429 43.1414 143.092 43.1414H142.872C141.817 43.1414 141.076 43.4347 140.651 44.0212C140.226 44.5931 140.013 45.4509 140.013 46.5946V46.9685L140.123 50.0698C140.123 50.1431 140.108 50.2385 140.079 50.3558C140.05 50.4584 140.006 50.5684 139.947 50.6857C139.888 50.803 139.808 50.9056 139.705 50.9936C139.617 51.0669 139.5 51.1036 139.353 51.1036C139.016 51.1036 138.789 51.0083 138.671 50.8177C138.569 50.6124 138.517 50.2971 138.517 49.8719Z" fill="#0076B5"/>
<path d="M147.999 39.2043C147.897 39.2043 147.779 39.1896 147.647 39.1603C147.515 39.131 147.391 39.0797 147.273 39.0063C147.156 38.9184 147.053 38.8084 146.965 38.6764C146.892 38.5298 146.855 38.3392 146.855 38.1046C146.855 37.9433 146.885 37.782 146.943 37.6207C147.017 37.4594 147.105 37.3201 147.207 37.2028C147.31 37.0708 147.42 36.9681 147.537 36.8948C147.669 36.8068 147.794 36.7629 147.911 36.7629C148.146 36.7629 148.373 36.8435 148.593 37.0048C148.828 37.1661 148.945 37.4814 148.945 37.9506C148.945 38.7864 148.63 39.2043 147.999 39.2043ZM146.767 50.2678C146.753 50.1945 146.731 50.0185 146.701 49.7399C146.687 49.4466 146.679 48.9261 146.679 48.1783C146.679 47.885 146.679 47.5111 146.679 47.0565C146.679 46.5873 146.687 46.1034 146.701 45.6048C146.731 45.0916 146.767 44.5784 146.811 44.0652C146.87 43.552 146.936 43.0901 147.009 42.6795C147.097 42.2689 147.207 41.939 147.339 41.6897C147.471 41.4258 147.633 41.2938 147.823 41.2938C148.058 41.2938 148.197 41.3965 148.241 41.6018C148.3 41.807 148.329 42.049 148.329 42.3276C148.3 42.9434 148.256 43.64 148.197 44.4171C148.138 45.1796 148.109 45.9274 148.109 46.6606C148.109 47.2031 148.153 47.8043 148.241 48.4642C148.329 49.1094 148.373 49.6886 148.373 50.2018C148.373 50.5537 148.3 50.825 148.153 51.0156C148.007 51.1916 147.853 51.2795 147.691 51.2795C147.442 51.2795 147.244 51.2062 147.097 51.0596C146.951 50.913 146.841 50.649 146.767 50.2678Z" fill="#0076B5"/>
<path d="M149.882 47.2765C149.882 46.558 150.007 45.8468 150.256 45.1429C150.506 44.4244 150.85 43.7866 151.29 43.2294C151.73 42.6575 152.236 42.203 152.808 41.8657C153.394 41.5138 154.017 41.3378 154.677 41.3378C155.176 41.3378 155.645 41.4551 156.085 41.6897C156.539 41.9243 156.928 42.2323 157.251 42.6135C157.573 42.9801 157.83 43.4053 158.02 43.8892C158.211 44.3585 158.306 44.8277 158.306 45.2969C158.306 45.5462 158.292 45.7881 158.262 46.0227C158.233 46.2427 158.196 46.47 158.152 46.7046C158.123 46.9245 158.094 47.1592 158.064 47.4084C158.035 47.6577 158.02 47.9363 158.02 48.2442C158.02 48.6548 158.079 48.9407 158.196 49.102C158.314 49.2633 158.482 49.344 158.702 49.344C158.834 49.344 158.959 49.2707 159.076 49.124C159.208 48.9774 159.326 48.8894 159.428 48.8601C159.809 48.8601 160 49.1387 160 49.6959C160 49.8719 159.963 50.0478 159.89 50.2238C159.817 50.3997 159.714 50.561 159.582 50.7077C159.45 50.8396 159.296 50.957 159.12 51.0596C158.944 51.1476 158.754 51.1916 158.548 51.1916C158.343 51.1916 158.138 51.1329 157.932 51.0156C157.742 50.8983 157.566 50.7517 157.405 50.5757C157.243 50.3851 157.111 50.1725 157.009 49.9379C156.906 49.6886 156.855 49.432 156.855 49.168C156.415 49.7252 155.916 50.2165 155.359 50.6417C154.817 51.0669 154.215 51.2795 153.555 51.2795C153.13 51.2795 152.698 51.1769 152.258 50.9716C151.833 50.7663 151.444 50.4877 151.092 50.1358C150.74 49.7692 150.447 49.344 150.212 48.8601C149.992 48.3615 149.882 47.8337 149.882 47.2765ZM151.246 47.2105C151.246 47.5331 151.319 47.8263 151.466 48.0903C151.627 48.3542 151.833 48.5815 152.082 48.7721C152.346 48.9481 152.632 49.0874 152.94 49.19C153.262 49.2927 153.577 49.344 153.885 49.344C154.531 49.344 155.044 49.2047 155.425 48.9261C155.806 48.6328 156.107 48.2736 156.327 47.8483C156.547 47.4084 156.701 46.9392 156.789 46.4406C156.877 45.9274 156.957 45.4435 157.031 44.989C157.031 44.8277 156.95 44.6517 156.789 44.4611C156.642 44.2558 156.459 44.0725 156.239 43.9112C156.019 43.7353 155.777 43.5886 155.513 43.4713C155.264 43.354 155.036 43.2954 154.831 43.2954C154.289 43.2954 153.797 43.4127 153.358 43.6473C152.918 43.8819 152.536 44.1898 152.214 44.5711C151.906 44.9377 151.664 45.3556 151.488 45.8248C151.327 46.294 151.246 46.7559 151.246 47.2105Z" fill="#0076B5"/>
</svg>
