<svg width="613" height="545" viewBox="0 0 613 545" fill="none" xmlns="http://www.w3.org/2000/svg">
<path opacity="0.18" d="M601.936 357.003C597.889 372.955 590.869 388.875 584.719 403.072C561.352 456.683 521.923 493.346 460.185 485.853C430.431 482.232 401.309 472.24 371.35 473.205C342.687 474.09 315.399 484.888 288.174 493.884C237.583 510.627 181.569 521.346 131.531 502.911C81.4926 484.477 42.5847 427.767 60.3865 377.492C74.2359 338.252 117.539 311.929 122.045 270.57C127.974 216.817 64.3548 170.447 77.7773 117.99C83.4847 95.9034 101.856 79.4612 121.318 67.6039C166.028 40.2687 220.998 31.2413 272.365 40.5375C321.217 49.3119 361.864 90.449 411.096 92.3462C442.842 93.5478 473.386 75.5088 505.006 78.481C544.12 82.2596 572.799 116.899 591.091 151.696C596.979 162.559 601.904 173.917 605.809 185.64C613.409 209.529 614.952 234.933 610.299 259.567C605.557 284.862 606.126 308.577 605.398 334.521C605.079 342.12 603.918 349.66 601.936 357.003Z" fill="#00A8FF"/>
<path d="M193.934 532.754C191.017 533.666 187.741 535.153 187 538.055C196.182 543.908 207.54 545.252 218.396 544.964C229.252 544.676 240.084 542.757 250.963 542.685C265.31 542.685 281.475 545.252 293 536.52C287.881 533.268 282.004 531.416 275.951 531.147C278.079 517.714 202.447 530.091 193.934 532.754Z" fill="url(#paint0_linear)"/>
<path d="M8.45163 371.922C4.54753 371.922 -0.850753 373.937 0.113223 377.794L178.28 392.536C199.247 394.28 220.237 396 241.3 396C273.111 396 304.778 392.02 336.517 390.153C366.4 388.408 396.331 388.531 426.239 388.678C453.929 388.826 487.981 393.912 514.876 386.516C518.925 385.411 522.998 382.094 522.733 377.843C522.612 375.878 521.6 373.838 522.347 372.02C522.781 371.128 523.47 370.391 524.323 369.907C529.842 366.443 536.879 369.146 543.241 370.571C553.368 372.815 563.943 371.445 573.197 366.689C574.931 365.953 576.409 364.704 577.438 363.102C577.929 362.293 578.107 361.326 577.938 360.391C577.768 359.456 577.264 358.618 576.523 358.04C575.773 357.663 574.948 357.469 574.113 357.475L519.576 353.151C517.562 352.833 515.503 353.019 513.575 353.692C511.43 354.65 511.551 357.205 509.815 358.262C506.996 359.957 500.585 359.048 497.356 359.244C489.09 359.711 480.824 360.178 472.534 360.596C456.034 361.398 439.501 362.078 422.937 362.635C389.198 363.79 355.29 364.478 321.479 365.092C254.603 366.197 187.703 366.787 120.851 369.416C83.3766 370.841 45.9262 371.087 8.45163 371.922Z" fill="url(#paint1_linear)"/>
<path d="M145.24 0.763491C142.148 -0.332224 138.771 -0.246081 135.736 1.0059C133.779 1.71832 131.989 2.84136 130.484 4.30263C128.978 5.7639 127.789 7.53095 126.993 9.48983C126.977 9.74447 126.909 9.99276 126.792 10.2181C126.674 10.4435 126.511 10.6408 126.313 10.7968C126.116 10.9528 125.887 11.064 125.644 11.1228C125.401 11.1817 125.148 11.1869 124.902 11.1381C121.445 11.13 118.108 12.4347 115.542 14.7983C112.548 17.5859 112.548 21.0037 112.144 25.0033C111.654 24.7518 111.113 24.6207 110.564 24.6207C110.015 24.6207 109.474 24.7518 108.984 25.0033C108.006 25.4956 107.114 26.151 106.347 26.9425C105.036 28.0162 103.987 29.3852 103.282 30.942C102.332 33.5842 103.401 36.493 103.448 39.3048C103.465 39.4308 103.455 39.5589 103.418 39.6804C103.381 39.8018 103.318 39.9135 103.235 40.0077C103.137 40.0504 103.032 40.0724 102.926 40.0724C102.82 40.0724 102.714 40.0504 102.617 40.0077C101.88 39.8623 101.215 39.4744 100.479 39.4017C99.617 39.41 98.7852 39.7243 98.1261 40.2905C97.467 40.8568 97.0219 41.6396 96.8673 42.5044C96.587 44.2406 96.6761 46.018 97.1286 47.716C97.5701 49.415 97.5206 51.2081 96.9861 52.8791C96.4167 53.9767 95.6697 54.9683 94.7765 55.8121C92.1998 58.2621 90.5229 61.5384 90.0248 65.0959C89.885 66.8151 90.3389 68.5301 91.3078 69.9439C91.8055 70.6419 92.472 71.1964 93.2423 71.5533C94.0126 71.9101 94.8605 72.0572 95.7031 71.98C99.6471 71.4467 101.025 65.7989 104.779 64.4657C108.533 63.1325 112.738 58.6239 115.161 55.0606C117.11 52.2003 119.01 48.8795 122.289 47.7887C123.368 47.5547 124.408 47.1628 125.378 46.6252C126.022 46.1118 126.556 45.4681 126.946 44.7345C128.303 42.6922 129.353 40.4533 130.058 38.0928C131.246 33.4387 130.058 28.2029 132.268 23.9125C132.898 22.6817 133.777 21.6008 134.845 20.7403C135.914 19.8798 137.149 19.2592 138.469 18.9191C139.585 18.6282 140.844 18.5555 141.866 18.2404C143.158 17.8599 144.379 17.2619 145.477 16.4709C146.922 15.6231 148.166 14.4598 149.119 13.0643C150.072 11.6689 150.71 10.0758 150.989 8.39903C151.203 4.98122 148.186 1.927 145.24 0.763491Z" fill="#FF681C"/>
<path d="M154.506 6.88748C155.718 7.29728 156.724 8.07237 157.342 9.07343C157.961 10.0745 158.151 11.2359 157.879 12.3487C157.464 13.2486 156.845 14.0655 156.059 14.75L151.666 19L149.846 13.0925C149.658 11.984 149.031 10.9686 148.075 10.2237C147.45 9.9106 146.743 9.74586 146.024 9.74586C145.304 9.74586 144.597 9.9106 143.973 10.2237C142.687 10.7975 141.546 11.69 140.406 12.3487C140.09 12.5187 139.653 12.71 139.314 12.54C138.974 12.37 138.925 11.7537 139.095 11.3287C141.182 6.27122 149.167 4.86873 154.506 6.88748Z" fill="#FF681C"/>
<path d="M157.703 185.988C157.837 188.157 158.595 190.25 159.894 192.036C161.867 194.353 165.153 195.512 167.88 197.203C168.161 197.339 168.407 197.531 168.6 197.768C168.794 198.004 168.93 198.278 169 198.57C168.984 198.852 168.881 199.124 168.703 199.351C168.525 199.577 168.281 199.749 168.002 199.845C167.424 200 166.819 200.039 166.225 199.96C163.443 199.545 160.638 199.29 157.825 199.196C156.413 199.196 154.782 199.335 153.881 198.292C153.301 197.409 153.1 196.347 153.321 195.326C153.57 191.494 153.242 187.647 152.347 183.903C152.049 182.989 151.941 182.029 152.031 181.076C152.122 180.635 152.332 180.225 152.642 179.886C152.951 179.547 153.348 179.291 153.794 179.143C154.24 178.995 154.718 178.961 155.182 179.044C155.646 179.127 156.078 179.324 156.437 179.616C158.044 180.937 157.509 184.204 157.703 185.988Z" fill="#FCBDBA"/>
<path d="M113.654 202.766C113.325 205.01 113.61 207.301 114.479 209.397C115.911 212.276 118.895 213.994 121.199 216.269C121.449 216.459 121.651 216.705 121.79 216.986C121.929 217.267 122.001 217.577 122 217.89C121.928 218.176 121.772 218.432 121.551 218.627C121.33 218.821 121.055 218.944 120.763 218.979C120.171 219.04 119.574 218.966 119.016 218.762C116.38 217.802 113.691 216.994 110.962 216.342C109.579 216.1 107.953 215.858 107.298 214.648C106.901 213.637 106.901 212.513 107.298 211.502C108.352 207.623 108.842 203.614 108.754 199.596C108.655 198.603 108.754 197.6 109.045 196.644C109.227 196.212 109.52 195.835 109.894 195.55C110.268 195.266 110.71 195.084 111.176 195.023C111.642 194.962 112.116 195.023 112.551 195.202C112.986 195.38 113.366 195.669 113.654 196.039C115.037 197.661 113.824 200.903 113.654 202.766Z" fill="#FCBDBA"/>
<path d="M105 93.7161C105 93.7161 128.13 127.647 143.284 137.783C142.992 141.175 143.066 144.589 143.502 147.967C144.278 153.454 146.969 158.27 147.842 163.662L150.751 181.801C150.872 182.616 151.115 183.598 151.915 183.886C152.396 184.038 152.913 184.038 153.394 183.886L159.795 182.161C159.411 171.261 159.646 160.349 160.498 149.476C161.023 145.079 161.136 140.643 160.837 136.225C159.771 126.64 151.818 118.086 146.29 110.394C142.968 105.745 139.404 98.7961 134.749 95.2736C130.87 92.3502 125.39 93.74 120.517 94.2193C116.862 94.564 113.175 94.3048 109.607 93.4525C108.877 93.1147 108.074 92.962 107.27 93.008C106.465 93.054 105.685 93.2974 105 93.7161Z" fill="#473F47"/>
<path d="M96 93.1577C96 93.1577 104.985 133.026 115.375 147.902C113.866 150.964 112.673 154.17 111.815 157.469C111.242 160.169 110.909 162.914 110.822 165.672L108.739 198.963C111.959 199.13 115.183 198.725 118.257 197.768L130.076 168.422C132.333 163.748 133.665 158.691 134 153.522C134 143.525 124.312 107.029 123.174 105.188C120.631 101.05 115.036 100.404 110.338 99.065C106.81 98.0802 103.477 96.5113 100.481 94.4252C99.0032 93.5164 97.6711 92.6315 96 93.1577Z" fill="#473F47"/>
<path d="M178.485 63.2289C183.375 65.5866 188.801 66.4576 194.143 65.7421C195.709 65.291 197.351 65.2052 198.953 65.4908C198.255 66.5212 197.582 68.004 198.568 68.8837C198.87 69.09 199.218 69.2112 199.578 69.2355C200.875 69.4101 202.193 69.2638 203.426 68.8083C204.009 68.5066 204.653 68.3598 205.303 68.381C205.875 68.5297 206.369 68.9091 206.675 69.4364C206.982 69.9636 207.076 70.5961 206.938 71.1958C206.597 72.3924 205.843 73.4137 204.821 74.0609C203.17 75.2041 201.256 75.8672 199.278 75.982C197.3 76.0969 195.328 75.6593 193.565 74.7144C192.555 74.1363 191.617 73.4075 190.583 72.8295C188.593 71.8821 186.49 71.2225 184.33 70.8691C178.007 69.5014 171.792 67.6363 165.738 65.2897C164.821 65.0617 163.957 64.641 163.201 64.0534C162.444 63.4658 161.81 62.7235 161.336 61.8717C160.11 58.705 162.371 53.4021 165.978 55.4629C170.163 58.0013 173.939 61.2685 178.485 63.2289Z" fill="#FCBDBA"/>
<path d="M149.062 45.1559C156.076 49.4836 163.9 52.51 172.115 54.073C172.469 54.073 172.894 54.2959 172.989 54.6303C173.027 54.8579 172.967 55.0905 172.824 55.2768C171.146 58.4639 169.025 61.4252 166.517 64.0824C166.248 64.4196 165.9 64.6941 165.501 64.8849C165.109 64.9934 164.697 65.0257 164.291 64.9797C163.885 64.9337 163.493 64.8105 163.139 64.6174C157.833 62.6111 152.636 60.3818 147.55 57.9296C143.023 56.0558 138.991 53.2623 135.74 49.7482C134.119 47.9246 133.158 45.6591 133 43.2833C133 40.6527 135.551 35.9267 139.07 37.2197C140.653 37.7993 142.046 39.6496 143.251 40.6973C145.089 42.2945 147.03 43.7835 149.062 45.1559Z" fill="#00A8FF"/>
<path d="M149.062 45.1559C156.076 49.4836 163.9 52.51 172.115 54.073C172.469 54.073 172.894 54.2959 172.989 54.6303C173.027 54.8579 172.967 55.0905 172.824 55.2768C171.146 58.4639 169.025 61.4252 166.517 64.0824C166.248 64.4196 165.9 64.6941 165.501 64.8849C165.109 64.9934 164.697 65.0257 164.291 64.9797C163.885 64.9337 163.493 64.8105 163.139 64.6174C157.833 62.6111 152.636 60.3818 147.55 57.9296C143.023 56.0558 138.991 53.2623 135.74 49.7482C134.119 47.9246 133.158 45.6591 133 43.2833C133 40.6527 135.551 35.9267 139.07 37.2197C140.653 37.7993 142.046 39.6496 143.251 40.6973C145.089 42.2945 147.03 43.7835 149.062 45.1559Z" fill="url(#paint2_linear)"/>
<path d="M249.785 30.2255C251.067 31.8403 251.832 33.8032 251.98 35.8586C252.129 37.914 251.655 39.9665 250.619 41.7486C249.583 43.5308 248.034 44.96 246.173 45.8501C244.313 46.7402 242.227 47.0498 240.187 46.7386C240.187 46.7386 228.838 47.0023 231.405 57.6914L253 85.1574L225.503 106.727C214.802 109.292 214.538 97.9557 214.538 97.9557C214.831 95.9207 214.507 93.8446 213.608 91.9954C212.708 90.1462 211.274 88.6089 209.491 87.5819C207.708 86.555 205.658 86.0856 203.605 86.2344C201.552 86.3831 199.591 87.1432 197.975 88.4165C196.359 89.6898 195.162 91.4178 194.539 93.3773C193.916 95.3368 193.895 97.4379 194.48 99.4092C195.064 101.38 196.227 103.131 197.818 104.436C199.409 105.741 201.355 106.539 203.404 106.727C213.17 109.939 209.379 119.43 209.379 119.43L181.882 141L126 70.1302L153.233 48.5601C163.934 45.9957 164.198 57.3319 164.198 57.3319C163.944 59.0126 164.111 60.7302 164.685 62.3302C165.26 63.9303 166.223 65.3627 167.489 66.4986C168.755 67.6345 170.284 68.4384 171.938 68.8379C173.592 69.2375 175.32 69.2202 176.966 68.7876C178.611 68.355 180.124 67.5207 181.367 66.3596C182.609 65.1986 183.544 63.7472 184.086 62.136C184.628 60.5247 184.761 58.8041 184.473 57.1289C184.184 55.4537 183.484 53.8763 182.434 52.5386C181.558 51.4395 180.469 50.5289 179.232 49.8617C177.995 49.1944 176.636 48.7842 175.236 48.656C165.566 45.4684 169.357 35.8817 169.357 35.8817L197.118 14L218.713 41.4899C218.713 41.4899 228.31 45.2766 231.429 35.5222C231.635 33.4795 232.449 31.5452 233.765 29.9684C235.081 28.3916 236.84 27.2444 238.814 26.6746C240.789 26.1048 242.889 26.1385 244.844 26.7714C246.799 27.4042 248.52 28.6073 249.785 30.2255Z" fill="#00A8FF"/>
<path d="M249.785 30.2255C251.067 31.8403 251.832 33.8032 251.98 35.8586C252.129 37.914 251.655 39.9665 250.619 41.7486C249.583 43.5308 248.034 44.96 246.173 45.8501C244.313 46.7402 242.227 47.0498 240.187 46.7386C240.187 46.7386 228.838 47.0023 231.405 57.6914L253 85.1574L225.503 106.727C214.802 109.292 214.538 97.9557 214.538 97.9557C214.831 95.9207 214.507 93.8446 213.608 91.9954C212.708 90.1462 211.274 88.6089 209.491 87.5819C207.708 86.555 205.658 86.0856 203.605 86.2344C201.552 86.3831 199.591 87.1432 197.975 88.4165C196.359 89.6898 195.162 91.4178 194.539 93.3773C193.916 95.3368 193.895 97.4379 194.48 99.4092C195.065 101.38 196.227 103.131 197.818 104.436C199.409 105.741 201.355 106.539 203.404 106.727C213.17 109.939 209.379 119.43 209.379 119.43L181.882 141L126 70.1302L153.233 48.5601C163.934 45.9957 164.198 57.3319 164.198 57.3319C163.944 59.0126 164.111 60.7302 164.685 62.3302C165.26 63.9303 166.223 65.3627 167.489 66.4986C168.755 67.6345 170.284 68.4384 171.938 68.8379C173.592 69.2375 175.32 69.2202 176.966 68.7876C178.611 68.355 180.124 67.5207 181.367 66.3596C182.609 65.1986 183.544 63.7472 184.086 62.136C184.628 60.5247 184.761 58.8041 184.473 57.1289C184.184 55.4537 183.484 53.8763 182.434 52.5386C181.558 51.4395 180.469 50.5289 179.232 49.8617C177.995 49.1944 176.636 48.7842 175.236 48.656C165.566 45.4684 169.357 35.8817 169.357 35.8817L197.118 14L218.713 41.4899C218.713 41.4899 228.31 45.2766 231.429 35.5222C231.635 33.4795 232.449 31.5452 233.765 29.9684C235.081 28.3916 236.84 27.2444 238.814 26.6746C240.789 26.1048 242.889 26.1385 244.844 26.7714C246.799 27.4042 248.52 28.6073 249.785 30.2255Z" fill="url(#paint3_linear)"/>
<path d="M157.385 93.7667C163.27 98.4695 169.395 103.525 176.601 104.748C177.988 105.052 179.422 105.081 180.82 104.835C182.219 104.589 183.553 104.071 184.744 103.313C185.155 103.074 185.489 102.727 185.71 102.312C185.931 101.896 186.029 101.429 185.993 100.962C185.729 99.8098 184.287 99.41 183.11 99.1984C177.606 98.4615 172.32 96.6031 167.594 93.7432C165.841 92.5288 164.179 91.1929 162.622 89.7458L150.924 79.5408C150.781 79.3707 150.602 79.2339 150.398 79.1404C150.194 79.0468 149.972 78.9989 149.747 79C149.267 79 148.979 79.5408 148.762 79.9641C148.037 81.4085 147.489 82.9318 147.129 84.5023C146.769 86.2188 147.129 86.4539 148.642 87.4415C151.669 89.448 154.583 91.5564 157.385 93.7667Z" fill="url(#paint4_linear)"/>
<path d="M162.957 85.0309C166.969 88.4248 171.896 90.6475 177.164 91.4404C178.731 91.461 180.275 91.8125 181.687 92.4705C180.716 93.1801 179.674 94.3934 180.408 95.3319C180.643 95.5931 180.945 95.7904 181.284 95.9042C182.464 96.3911 183.744 96.6103 185.025 96.5451C185.659 96.4518 186.307 96.4988 186.919 96.6825C187.167 96.8221 187.383 97.0074 187.557 97.228C187.73 97.4486 187.856 97.7 187.929 97.9679C188.001 98.2359 188.019 98.515 187.98 98.7893C187.94 99.0637 187.846 99.3279 187.701 99.5668C187.082 100.537 186.097 101.235 184.954 101.513C183.094 102.079 181.112 102.153 179.212 101.727C177.313 101.3 175.567 100.388 174.157 99.0861C173.328 98.3078 172.641 97.415 171.789 96.6596C170.16 95.3007 168.343 94.1681 166.39 93.2946C160.775 90.4099 155.392 87.1195 150.289 83.4514C149.484 83.0095 148.779 82.4147 148.217 81.7026C147.656 80.9906 147.249 80.1761 147.022 79.3081C146.69 76.1949 150.218 72.1432 153.107 74.9359C156.469 78.2322 159.192 82.0093 162.957 85.0309Z" fill="#FCBDBA"/>
<path d="M96.502 99.343C96.9233 99.8656 97.4541 100.282 98.0541 100.56C100.42 101.958 102.88 103.178 105.414 104.212C112 106.653 119.208 106.593 125.755 104.042C128.374 103.066 130.833 101.678 133.045 99.9273C133.884 99.3355 134.59 98.5632 135.114 97.663C135.738 96.1951 135.934 94.5703 135.678 92.9884C135.09 84.7835 134.22 76.3107 135.678 68.3493C136.147 65.6143 136.937 62.9488 138.03 60.4122C139.934 56.9506 141.509 53.3058 142.733 49.5291C143.152 47.2082 143.077 44.8204 142.513 42.5327C141.948 40.2449 140.908 38.1125 139.464 36.2843C136.407 32.2428 130.811 28.6638 125.872 30.4898C120.168 32.7152 115.221 36.6265 111.646 41.7381C107.747 47.4622 104.659 53.7342 102.475 60.3635C101.534 62.9686 100.617 65.5737 99.8882 68.2519C98.3314 74.7304 97.3242 81.3373 96.8783 87.9973C96.6196 90.7728 96.3845 93.5484 96.1023 96.324C95.8803 97.3473 96.0223 98.4192 96.502 99.343Z" fill="#00A8FF"/>
<path d="M127.021 104C129.365 103.004 131.566 101.588 133.545 99.8019C134.296 99.1981 134.928 98.4101 135.397 97.4917C135.956 95.9939 136.131 94.3362 135.902 92.7223C135.376 84.3509 134.597 75.7063 135.902 67.5833C135.06 66.5897 134.113 65.6954 133.187 64.8012C131.083 62.7642 128.052 58.74 125 59.0132C125.737 62.8139 126.326 66.6891 126.768 70.5642C127.21 74.4394 127.042 78.4636 127.568 82.2891C128.266 89.058 128.131 95.9104 127.168 102.634C127.078 103.082 127.029 103.54 127.021 104Z" fill="url(#paint5_linear)"/>
<path d="M154.254 73.3557C154.431 73.455 154.588 73.5921 154.716 73.759C154.844 73.926 154.94 74.1193 155 74.3279C155.006 74.7423 154.869 75.1437 154.616 75.4497C152.562 78.6464 149.986 81.3936 147.021 83.5513C146.735 83.8021 146.39 83.9578 146.026 84C145.61 83.9508 145.22 83.7489 144.919 83.4266C140.398 79.6127 135.878 75.9483 131.47 71.9598C128.62 69.7291 126.103 67.0208 124.011 63.933C122.474 61.1458 121.303 58.1329 120.531 54.9838C117.841 45.6358 125.978 41.5726 131.425 48.4278C138.613 57.5015 145.168 66.351 154.254 73.3557Z" fill="#00A8FF"/>
<path d="M153.151 200.541C153.018 200.184 152.972 199.793 153.017 199.408C153.061 199.024 153.196 198.66 153.406 198.354C153.968 197.749 154.886 198.037 155.6 198.354C157.177 199.217 158.826 199.901 160.523 200.397C162.232 200.905 164.046 200.69 165.624 199.793C166.491 199.217 167.333 198.354 168.328 198.44C168.829 198.524 169.307 198.731 169.731 199.044C171.262 199.94 172.904 200.571 174.602 200.916C175.317 200.984 176.007 201.24 176.617 201.664C176.802 201.811 176.937 202.024 177 202.269C177 202.844 176.515 203.276 176.031 203.478C170.725 205.809 164.782 204.946 159.12 204.255C158.485 204.154 157.841 204.154 157.207 204.255C156.263 204.456 155.115 205.003 154.325 204.255C153.648 203.157 153.243 201.875 153.151 200.541Z" fill="#473F47"/>
<path d="M106.058 214.051C105.98 213.726 105.981 213.386 106.06 213.061C106.139 212.736 106.294 212.438 106.511 212.192C107.108 211.74 107.92 212.192 108.565 212.468C109.952 213.397 111.414 214.196 112.934 214.855C114.474 215.458 116.169 215.458 117.709 214.855C118.569 214.478 119.428 213.825 120.36 214.026C120.811 214.165 121.233 214.396 121.601 214.704C122.916 215.718 124.374 216.506 125.923 217.041C126.588 217.186 127.21 217.496 127.737 217.945C127.815 218.014 127.878 218.098 127.923 218.193C127.968 218.288 127.994 218.392 128 218.498C128 219.001 127.475 219.302 126.997 219.428C121.816 220.809 116.396 219.428 111.215 218.046C110.633 217.868 110.03 217.775 109.424 217.769C108.541 217.769 107.419 218.171 106.75 217.317C106.267 216.305 106.029 215.183 106.058 214.051Z" fill="#473F47"/>
<path d="M150.023 23.5694C149.636 24.8665 149.25 26.1637 148.932 27.4844C148.571 29.4543 148.07 31.3936 147.432 33.2863C147.108 34.2302 146.591 35.09 145.916 35.8066C145.241 36.5232 144.425 37.0795 143.523 37.4372C142.603 37.7422 141.605 37.6672 140.737 37.2279C139.869 36.7886 139.198 36.0187 138.864 35.0787C137.773 35.3382 137.386 36.7297 137.409 37.9089C137.592 39.0626 137.383 40.2463 136.818 41.2579C135.796 42.5079 133.796 41.9891 132.455 41.0928C130.425 39.6733 128.846 37.6604 127.92 35.3092C126.993 32.958 126.76 30.3742 127.25 27.8854C128.364 22.626 128.318 16.3288 131.205 11.777C132.242 10.2409 133.563 8.93418 135.091 7.93267C136.43 6.91511 137.992 6.25866 139.636 6.0223C140.787 5.95223 141.942 6.04748 143.068 6.30532C147.886 7.15437 151.977 7.8855 152 13.6166C151.852 17.0218 151.185 20.3811 150.023 23.5694Z" fill="#FCBDBA"/>
<path d="M144.392 13.1251C143.629 13.1251 142.749 12.9257 142.078 13.4242C141.407 13.9227 141.36 15.0443 140.944 15.9167C140.134 17.5368 138.074 17.7611 136.523 18.6085C135.584 19.1498 134.801 19.9599 134.262 20.9494C133.723 21.9389 133.448 23.0695 133.468 24.2166C133.498 23.4827 133.329 22.7553 132.982 22.1229C132.889 21.9731 132.769 21.8451 132.629 21.747C132.489 21.6489 132.332 21.5826 132.167 21.5523C132.002 21.522 131.834 21.5282 131.671 21.5706C131.509 21.613 131.356 21.6907 131.223 21.7989C131.014 22.0653 130.892 22.3979 130.876 22.746C130.813 23.4578 130.92 24.1751 131.187 24.8295C131.455 25.484 131.873 26.0538 132.403 26.4847C131.923 27.5535 131.168 28.4521 130.229 29.0748C129.29 29.6974 128.205 30.0181 127.103 29.9991C126.406 30.017 125.726 29.7699 125.182 29.3012C124.839 28.922 124.586 28.4607 124.441 27.9553C123.122 23.9673 125.135 19.7052 125.622 15.4929C125.668 14.0055 125.893 12.5309 126.293 11.1062C126.722 10.0997 127.309 9.18064 128.029 8.38938C130.189 5.59532 133.049 3.52778 136.268 2.43238C139.37 1.51016 145.527 1.98373 147.957 4.62574C148.508 5.38178 148.857 6.28615 148.964 7.24053C149.072 8.1949 148.935 9.16279 148.567 10.039C148.2 10.9151 147.616 11.6661 146.88 12.2102C146.144 12.7543 145.284 13.0707 144.392 13.1251Z" fill="#FF681C"/>
<path d="M143 378V333.221C148.947 320.441 160.671 329.153 160.671 329.153C162.501 331.052 164.864 332.365 167.455 332.922C170.046 333.479 172.746 333.255 175.207 332.279C177.668 331.303 179.778 329.62 181.264 327.446C182.75 325.272 183.544 322.707 183.544 320.082C183.544 317.457 182.75 314.892 181.264 312.718C179.778 310.544 177.668 308.861 175.207 307.885C172.746 306.909 170.046 306.685 167.455 307.242C164.864 307.8 162.501 309.112 160.671 311.011C149.599 318.191 143 306.943 143 306.943V262.14H188.229C188.229 262.14 199.687 255.607 192.338 244.645C190.42 242.833 189.094 240.494 188.531 237.929C187.968 235.364 188.194 232.69 189.18 230.254C190.166 227.817 191.867 225.728 194.062 224.257C196.258 222.786 198.849 222 201.5 222C204.151 222 206.742 222.786 208.938 224.257C211.133 225.728 212.834 227.817 213.82 230.254C214.806 232.69 215.032 235.364 214.469 237.929C213.906 240.494 212.58 242.833 210.662 244.645C210.662 244.645 201.863 256.253 214.771 262.14H260V378H143Z" fill="url(#paint6_linear)"/>
<path d="M57.0791 376H49L131.704 155.414C131.982 154.702 132.466 154.091 133.092 153.661C133.719 153.23 134.459 153 135.217 153C135.829 152.999 136.432 153.148 136.974 153.435C137.516 153.721 137.981 154.137 138.33 154.645C138.678 155.153 138.898 155.739 138.972 156.353C139.046 156.967 138.972 157.589 138.755 158.167L57.0791 376Z" fill="#00A8FF"/>
<path d="M105.106 376H97L180.894 153H189L105.106 376Z" fill="#00A8FF"/>
<path d="M167.891 189H126L128.109 183H170L167.891 189Z" fill="#00A8FF"/>
<path d="M154.821 224H112L114.179 219H157L154.821 224Z" fill="#00A8FF"/>
<path d="M142.843 258H100L102.157 254H145L142.843 258Z" fill="#00A8FF"/>
<path d="M129.796 292H86L88.2045 288H132L129.796 292Z" fill="#00A8FF"/>
<path d="M116.796 328H73L75.229 323H119L116.796 328Z" fill="#00A8FF"/>
<path d="M127.612 187.582L116.62 216.903H157.073L154.923 222.655H114.542L103.574 251.951H143.931L141.781 257.704H101.352L90.3847 287.024H130.79L128.639 292.777H88.2342L77.2429 322.097H117.624L115.45 327.85H75.0924L57.0762 376H49L131.674 155.168C132.033 154.411 132.629 153.794 133.37 153.414C134.11 153.033 134.954 152.911 135.771 153.065C136.588 153.219 137.331 153.641 137.886 154.266C138.441 154.891 138.777 155.684 138.842 156.522C138.842 156.984 138.761 157.442 138.603 157.876L129.643 181.83H170L167.85 187.582H127.612Z" fill="url(#paint7_linear)"/>
<path d="M105.106 376H97L180.894 153H189L105.106 376Z" fill="url(#paint8_linear)"/>
<path d="M509.452 186.902C508.204 187.966 506.709 188.694 505.106 189.017C503.635 189.079 502.168 188.813 500.811 188.236L480.032 181.264C478.462 182.496 477.414 184.283 477.099 186.263C476.784 188.244 477.225 190.271 478.334 191.937C480.371 194.186 483.02 195.779 485.951 196.518L500.211 201.679C503.502 203.229 507.094 204.021 510.727 204C514.359 203.978 517.942 203.142 521.214 201.553C525.46 200.118 530.13 198.331 532.178 194.303C534.226 190.275 532.727 184.939 533.327 180.231C534.115 177.242 534.675 174.195 535 171.119C535 168.476 532.852 164.498 529.731 165.052C527.033 165.53 525.235 170.263 523.812 172.252C519.798 177.848 514.955 182.789 509.452 186.902Z" fill="white"/>
<path d="M478.642 179.909C478.433 179.36 478.112 178.862 477.702 178.446C477.499 178.237 477.24 178.093 476.957 178.032C476.674 177.972 476.379 177.997 476.11 178.104C475.847 178.268 475.635 178.504 475.499 178.784C475.362 179.065 475.307 179.379 475.339 179.69C475.358 179.8 475.356 179.913 475.331 180.022C475.306 180.131 475.259 180.233 475.194 180.324C475.05 180.47 474.785 180.324 474.568 180.324C472.301 179.885 469.987 179.543 467.673 179.299C467.424 179.249 467.167 179.268 466.929 179.354C466.69 179.44 466.479 179.59 466.319 179.788C466.158 179.986 466.053 180.224 466.015 180.477C465.978 180.731 466.009 180.989 466.106 181.226C466.357 182.003 466.741 182.729 467.239 183.372C468.42 185.323 468.854 187.884 470.734 189.152C471.884 189.833 473.221 190.115 474.543 189.957C475.869 189.957 477.171 189.64 478.497 189.713C479.373 189.903 480.287 189.8 481.101 189.421C481.404 189.191 481.646 188.887 481.802 188.537C481.958 188.187 482.023 187.803 481.993 187.421C481.853 186.216 481.432 185.062 480.763 184.055C480.016 182.738 479.317 181.324 478.642 179.909Z" fill="#FDB9A9"/>
<path d="M533.387 331.186C525.762 329.447 527.249 340.342 525.235 344.4C523.96 346.484 522.338 348.331 520.44 349.86C518.571 351.428 517.348 353.641 517.011 356.068C516.966 356.519 517.058 356.974 517.275 357.372C517.664 357.85 518.207 358.175 518.809 358.29C523.169 359.573 527.852 359.105 531.876 356.986C533.762 356.09 535.327 354.631 536.36 352.807C537.195 350.84 537.588 348.712 537.511 346.574C537.751 342.033 539.765 332.612 533.387 331.186Z" fill="#FDB9A9"/>
<path d="M528.209 353C528.209 353 505.871 353.903 515.339 360.476C524.807 367.05 538.934 358.879 540.315 357.375C541.696 355.87 540.562 353.301 540.562 353.301L528.209 353Z" fill="#00A8FF"/>
<path d="M539.535 356.801C537.562 359.185 527.057 362.309 522.396 361.975C517.735 361.641 513.568 359.591 514.036 356.658C514.505 353.725 522.692 346.976 524.246 347C525.799 347.024 527.008 350.482 530.115 351.197C531.503 351.42 532.928 351.295 534.253 350.836C535.578 350.377 536.759 349.599 537.686 348.574C537.963 348.216 538.357 347.957 538.804 347.841C539.251 347.724 539.725 347.755 540.152 347.93C540.802 349.346 541.085 350.894 540.978 352.439C540.87 353.985 540.375 355.482 539.535 356.801Z" fill="white"/>
<path d="M560.387 334.203C552.761 332.35 554.248 343.668 552.234 347.849C550.959 350.017 549.337 351.94 547.438 353.533C545.57 355.149 544.347 357.435 544.009 359.943C543.969 360.419 544.061 360.897 544.273 361.32C544.668 361.808 545.208 362.143 545.807 362.271C550.168 363.59 554.848 363.106 558.876 360.919C560.758 359.974 562.321 358.455 563.36 356.563C564.192 354.532 564.585 352.335 564.511 350.128C564.751 345.37 566.765 335.63 560.387 334.203Z" fill="#FDB9A9"/>
<path d="M553.209 357C553.209 357 530.871 357.964 540.339 365.217C549.807 372.471 563.934 363.442 565.315 361.793C566.696 360.145 565.562 357.33 565.562 357.33L553.209 357Z" fill="#00A8FF"/>
<path d="M563.73 360.385C561.974 362.949 552.622 366.333 548.474 365.974C544.325 365.615 540.615 363.41 541.032 360.257C541.449 357.104 548.737 349.849 550.12 350.002C551.503 350.156 552.579 353.745 555.344 354.489C556.579 354.734 557.846 354.605 559.025 354.116C560.205 353.627 561.258 352.793 562.083 351.694C562.328 351.305 562.678 351.025 563.077 350.899C563.476 350.774 563.9 350.81 564.279 351.002C564.835 352.504 565.075 354.139 564.98 355.771C564.884 357.404 564.456 358.986 563.73 360.385Z" fill="white"/>
<path d="M542 235L552.394 345L567.375 343.136C573.304 316.298 571.84 236.006 571.84 236.006L542 235Z" fill="#473F47"/>
<path d="M551 232.705L540.486 342L525.283 340.147C516.621 271.006 523.778 228 523.778 228L551 232.705Z" fill="#473F47"/>
<path d="M524.628 193.853C524.429 191.862 523.883 189.872 523.684 187.833C523.187 183.732 523.262 179.584 523.908 175.502C524.627 171.147 525.973 166.914 527.908 162.929C529.647 159.482 532.878 158.074 536.406 156.278C539.407 154.702 542.657 153.627 546.022 153.098C548.389 152.887 550.775 153.018 553.103 153.486C560.309 154.821 569.776 158.341 574.696 163.997C578.398 168.147 578.821 174.119 578.945 179.629C579.094 187.226 578.945 194.824 578.448 202.421C578.448 203.513 578.324 204.606 578.224 205.722C577.823 214.174 576.516 222.562 574.323 230.748C573.912 233.305 572.494 235.605 570.372 237.156C564.732 240.36 556.135 238.588 550.047 237.763C541.972 236.646 533.698 235.481 526.541 231.646C525.056 231.023 523.855 229.893 523.162 228.466C522.806 226.669 523.04 224.809 523.833 223.15C526.318 215.383 524.38 207.203 524.38 199.266C524.38 197.833 524.554 196.377 524.554 194.921C524.628 194.581 524.628 194.217 524.628 193.853Z" fill="white"/>
<path d="M551.472 207.3C553.308 208.498 555.333 209.344 557.452 209.798C563.767 211.722 570.248 212.746 576.515 214.795C576.941 214.882 577.337 215.089 577.659 215.395C577.915 215.809 578.032 216.301 577.992 216.794C578.022 218.718 577.748 220.634 577.182 222.465C576.998 223.379 576.497 224.189 575.776 224.738C574.86 225.087 573.857 225.087 572.941 224.738L549.327 219.492C547.638 219.039 545.9 218.821 544.156 218.842C542.091 219.094 540.065 219.623 538.128 220.416C534.506 221.632 530.779 222.469 527 222.914C527.201 218.188 527.751 213.486 528.644 208.849C528.991 207.478 529.486 206.154 530.121 204.902C530.883 203.665 531.779 202.525 532.79 201.504C536.603 197.332 539.248 192.111 543.108 187.939C545.133 185.74 547.659 184.341 549.446 181.993C550.161 181.044 556.356 172.874 555.761 172C556.952 173.549 559.907 172 560.979 173.599C561.646 174.598 560.979 175.947 560.359 176.971C555.794 184.987 552.609 193.781 550.947 202.953C550.471 205.077 549.756 205.826 551.472 207.3Z" fill="url(#paint9_linear)"/>
<path d="M531.471 108.98C533.689 110.405 535.432 112.461 536.475 114.883C537.519 117.305 537.816 119.983 537.329 122.575C536.842 125.167 535.592 127.555 533.741 129.432C531.889 131.31 529.519 132.592 526.935 133.115C526.935 133.115 513.231 138.279 520.927 150.202L559 174.458L534.873 212.542C522.954 220.241 517.791 206.533 517.791 206.533C517.272 203.945 515.991 201.571 514.113 199.717C512.234 197.863 509.844 196.614 507.25 196.131C504.656 195.647 501.977 195.951 499.557 197.003C497.136 198.055 495.087 199.808 493.671 202.035C492.255 204.263 491.537 206.863 491.611 209.501C491.684 212.14 492.546 214.696 494.084 216.841C495.622 218.986 497.766 220.622 500.241 221.537C502.716 222.453 505.408 222.607 507.971 221.979C521.241 221.714 520.662 234.915 520.662 234.915L496.535 273L398 210.249L422.006 172.503C433.925 164.828 439.088 178.512 439.088 178.512C439.6 181.11 440.877 183.495 442.756 185.36C444.635 187.224 447.029 188.483 449.63 188.974C452.231 189.465 454.919 189.164 457.348 188.112C459.777 187.06 461.835 185.305 463.257 183.072C464.679 180.838 465.399 178.23 465.325 175.584C465.252 172.937 464.387 170.373 462.843 168.223C461.299 166.073 459.146 164.435 456.662 163.52C454.178 162.605 451.478 162.455 448.908 163.09C435.638 163.356 436.241 150.154 436.241 150.154L460.706 111.683L498.803 135.963C498.803 135.963 512 136.542 511.735 123.268C511.314 121.524 511.246 119.714 511.536 117.944C511.826 116.174 512.468 114.48 513.424 112.962C515.324 110.082 518.272 108.055 521.641 107.312C525.01 106.568 528.536 107.167 531.471 108.98Z" fill="#FFE600"/>
<path d="M589.905 186.675C590.903 188.33 591.719 190.078 592.341 191.892C593.128 195.071 593.211 198.372 592.585 201.583C592.29 204.732 591.103 207.745 589.149 210.301C585.032 214.938 577.674 215.379 571.29 214.799C564.044 214.163 556.889 212.795 549.947 210.719C549.302 210.58 548.695 210.312 548.168 209.93C547.606 209.324 547.219 208.589 547.048 207.797C546.516 205.875 546.165 203.912 546 201.931C553.309 199.937 561.398 201.56 569.024 200.494C569.544 200.492 570.056 200.372 570.517 200.143C570.978 199.915 571.375 199.586 571.675 199.182C571.975 198.778 572.17 198.312 572.243 197.823C572.316 197.333 572.265 196.834 572.094 196.367C571.729 192.286 569.073 188.716 567.83 184.774C566.613 180.981 566.716 176.915 568.123 173.181C568.542 171.865 569.256 170.652 570.215 169.623C571.174 168.594 572.355 167.776 573.678 167.223C576.723 166.272 577.893 168.544 579.574 170.677C583.444 175.75 586.898 181.098 589.905 186.675Z" fill="white"/>
<path d="M542.88 198.492C542.597 198.23 542.258 198.06 541.898 198C541.622 198.033 541.359 198.149 541.136 198.336C540.912 198.524 540.737 198.776 540.628 199.066C540.417 199.656 540.177 200.231 539.909 200.789C539.549 201.244 539.104 201.602 538.606 201.834C538.108 202.066 537.57 202.166 537.034 202.128C535.958 202.005 534.875 202.005 533.799 202.128C533.401 202.221 533.03 202.428 532.721 202.73C532.427 203.059 532.219 203.475 532.122 203.932C531.939 204.861 531.962 205.827 532.188 206.743C532.414 207.66 532.836 208.497 533.416 209.181C534.586 210.535 536.024 211.547 537.609 212.134C539.226 212.948 541.019 213.196 542.76 212.845C543.716 212.528 544.627 212.058 545.467 211.45L548.966 209.236C549.257 209.078 549.518 208.855 549.732 208.58C550.499 207.486 549.445 204.206 548.75 203.112C547.001 201.254 545.024 199.697 542.88 198.492Z" fill="#FDB9A9"/>
<path d="M542.071 142.547C542.071 140.499 542.236 138.427 542.447 136.427C542.659 134.427 542.917 132.855 543.247 131.093C543.269 130.572 543.402 130.061 543.638 129.597C543.873 129.132 544.205 128.725 544.61 128.403C547.327 126.759 550.451 125.933 553.614 126.022C554.811 125.936 556.012 126.104 557.141 126.514C558.27 126.924 559.303 127.567 560.173 128.403C561.235 129.77 561.866 131.43 561.984 133.165C562.094 137.671 561.651 142.174 560.667 146.571C560.17 150.023 559.989 153.514 560.126 157C558.46 158.122 556.546 158.809 554.555 159C553.628 158.991 552.708 158.839 551.828 158.548C551.337 158.435 550.903 158.148 550.605 157.738C550.5 157.356 550.5 156.953 550.605 156.571C550.628 156.207 550.628 155.841 550.605 155.476C550.742 153.437 550.703 151.389 550.487 149.357C550.492 149.268 550.477 149.18 550.444 149.098C550.412 149.016 550.363 148.941 550.299 148.88C550.17 148.833 550.029 148.833 549.9 148.88H549.336C548.335 148.988 547.327 148.988 546.326 148.88C545.123 148.761 544.003 148.202 543.176 147.309C542.221 145.922 541.826 144.219 542.071 142.547Z" fill="#FDB9A9"/>
<path d="M546.331 130.245C545.607 130.245 544.955 130.605 544.327 130.245C543.669 129.738 543.092 129.148 542.612 128.491C541.457 127.066 540.891 125.302 541.017 123.521C541.062 122.715 541.347 121.936 541.839 121.272C542.375 120.667 543.064 120.196 543.843 119.9C545.342 119.213 547.009 118.91 548.675 119.023C551.088 119.315 553.339 120.315 555.1 121.879C555.471 122.24 555.925 122.516 556.428 122.689C556.89 122.779 557.368 122.779 557.83 122.689C560.887 122.449 563.925 123.32 566.308 125.118C567.661 126.22 568.724 127.637 570.125 128.604C571.526 129.571 572.903 129.93 573.627 131.167C573.93 131.742 574.052 132.385 573.98 133.022C573.907 133.658 573.642 134.263 573.217 134.766C572.317 135.752 571.08 136.419 569.714 136.655C569.864 137.021 569.934 137.411 569.921 137.802C569.907 138.194 569.809 138.579 569.634 138.935C569.459 139.291 569.209 139.611 568.899 139.876C568.589 140.141 568.226 140.345 567.83 140.478C567.272 140.557 566.733 140.725 566.236 140.973C565.897 141.22 565.753 141.603 565.414 141.85C564.617 142.457 563.579 142.66 563.24 143.694C563.139 144.13 563.099 144.576 563.12 145.021C563.061 145.681 562.773 146.305 562.298 146.798C561.984 147.113 561.429 147.9 560.97 147.99C560.511 148.08 560.1 147.562 559.955 147.113C559.389 145.205 559.534 143.176 560.366 141.355C560.964 140.476 561.313 139.47 561.38 138.432C561.38 137.397 559.786 136.587 558.965 137.195C558.144 137.802 558.095 139.264 557.226 138.971C557.765 137.518 557.725 135.932 557.113 134.503C556.501 133.075 555.358 131.899 553.892 131.19C552.265 130.726 550.569 130.506 548.868 130.538C548.073 130.382 547.264 130.299 546.452 130.29L546.331 130.245Z" fill="#473F47"/>
<path d="M549 148.649C551.381 148.287 553.71 147.734 555.953 147C556.155 148.511 555.701 150.032 554.666 151.307C553.631 152.582 552.079 153.533 550.271 154C550.451 152.36 550.451 150.711 550.271 149.071C550.268 148.929 550.2 148.792 550.079 148.688C549.947 148.65 549.803 148.65 549.671 148.688H549.12L549 148.649Z" fill="#DE9F93"/>
<path d="M472.265 166.204C472.634 166.737 472.872 167.35 472.961 167.993C473.05 168.636 472.986 169.292 472.776 169.905C472.354 171.133 471.738 172.284 470.952 173.313L467.133 179C466.136 180.471 464.701 182.138 463.023 181.991C458.839 181.697 456.991 170.763 458.547 167.528C460.347 163.483 469.517 162.747 472.265 166.204Z" fill="#FDB9A9"/>
<path d="M492 262.14V378H376V333.197C376 333.197 382.543 321.853 393.52 329.129C395.334 331.028 397.677 332.341 400.246 332.898C402.815 333.455 405.492 333.231 407.932 332.255C410.372 331.279 412.463 329.596 413.937 327.422C415.41 325.248 416.197 322.683 416.197 320.058C416.197 317.433 415.41 314.868 413.937 312.695C412.463 310.521 410.372 308.837 407.932 307.861C405.492 306.885 402.815 306.661 400.246 307.218C397.677 307.776 395.334 309.088 393.52 310.988C393.52 310.988 381.896 319.699 376 306.919V262.14H420.842C433.64 256.253 424.916 244.645 424.916 244.645C423.015 242.833 421.7 240.494 421.142 237.929C420.584 235.364 420.808 232.69 421.786 230.254C422.763 227.817 424.449 225.728 426.626 224.257C428.803 222.786 431.371 222 434 222C436.629 222 439.197 222.786 441.374 224.257C443.551 225.728 445.237 227.817 446.214 230.254C447.192 232.69 447.416 235.364 446.858 237.929C446.3 240.494 444.985 242.833 443.083 244.645C435.893 255.607 447.158 262.14 447.158 262.14H492Z" fill="#00A8FF"/>
<path d="M492 262.14V378H376V333.197C376 333.197 382.543 321.853 393.52 329.129C395.334 331.028 397.677 332.341 400.246 332.898C402.815 333.455 405.492 333.231 407.932 332.255C410.372 331.279 412.463 329.596 413.937 327.422C415.41 325.248 416.197 322.683 416.197 320.058C416.197 317.433 415.41 314.868 413.937 312.695C412.463 310.521 410.372 308.837 407.932 307.861C405.492 306.885 402.815 306.661 400.246 307.218C397.677 307.776 395.334 309.088 393.52 310.988C393.52 310.988 381.896 319.699 376 306.919V262.14H420.842C433.64 256.253 424.916 244.645 424.916 244.645C423.015 242.833 421.7 240.494 421.142 237.929C420.584 235.364 420.808 232.69 421.786 230.254C422.763 227.817 424.449 225.728 426.626 224.257C428.803 222.786 431.371 222 434 222C436.629 222 439.197 222.786 441.374 224.257C443.551 225.728 445.237 227.817 446.214 230.254C447.192 232.69 447.416 235.364 446.858 237.929C446.3 240.494 444.985 242.833 443.083 244.645C435.893 255.607 447.158 262.14 447.158 262.14H492Z" fill="url(#paint10_linear)"/>
<path d="M300.217 203.988C300.209 206.615 299.416 209.179 297.94 211.353C296.464 213.526 294.372 215.208 291.933 216.184C289.493 217.16 286.818 217.385 284.25 216.83C281.682 216.275 279.338 214.966 277.52 213.07C266.543 205.881 260 217.143 260 217.143V262H376V146H260V190.833C265.896 203.629 277.52 194.906 277.52 194.906C279.338 193.01 281.682 191.701 284.25 191.146C286.818 190.591 289.493 190.816 291.933 191.792C294.372 192.768 296.464 194.45 297.94 196.624C299.416 198.797 300.209 201.361 300.217 203.988Z" fill="#00A8FF"/>
<path d="M309.046 279.87C307.168 281.721 305.871 284.11 305.32 286.73C304.769 289.35 304.99 292.081 305.955 294.57C306.92 297.058 308.584 299.192 310.733 300.694C312.882 302.197 315.417 303 318.012 303C320.607 303 323.142 302.197 325.291 300.694C327.44 299.192 329.104 297.058 330.069 294.57C331.034 292.081 331.255 289.35 330.704 286.73C330.153 284.11 328.855 281.721 326.978 279.87C326.978 279.87 318.367 268.014 331 262H305C305 262 316.237 268.674 309.046 279.87Z" fill="#00A8FF"/>
<path d="M260 146V191.066C265.896 203.928 277.52 195.16 277.52 195.16C279.335 193.249 281.677 191.928 284.246 191.367C286.815 190.806 289.492 191.032 291.932 192.014C294.372 192.996 296.463 194.69 297.937 196.878C299.41 199.066 300.197 201.647 300.197 204.289C300.197 206.931 299.41 209.512 297.937 211.7C296.463 213.888 294.372 215.582 291.932 216.564C289.492 217.547 286.815 217.772 284.246 217.211C281.677 216.65 279.335 215.329 277.52 213.418C264.576 205.038 260 217.513 260 217.513V262.602H304.818C304.818 262.602 316.179 269.178 308.893 280.21C306.991 282.033 305.676 284.388 305.118 286.969C304.56 289.551 304.784 292.241 305.762 294.693C306.739 297.146 308.425 299.248 310.602 300.728C312.779 302.209 315.347 303 317.976 303C320.605 303 323.173 302.209 325.35 300.728C327.527 299.248 329.213 297.146 330.19 294.693C331.168 292.241 331.392 289.551 330.834 286.969C330.276 284.388 328.961 282.033 327.06 280.21C327.06 280.21 318.336 268.528 331.134 262.602H376V146H260Z" fill="url(#paint11_linear)"/>
<path d="M260 262V378H375.111V333.143C375.111 333.143 381.604 321.785 392.497 329.07C394.297 330.971 396.622 332.285 399.171 332.843C401.72 333.401 404.377 333.177 406.798 332.2C409.22 331.223 411.295 329.537 412.757 327.361C414.219 325.184 415 322.616 415 319.988C415 317.36 414.219 314.792 412.757 312.615C411.295 310.439 409.22 308.753 406.798 307.776C404.377 306.799 401.72 306.575 399.171 307.133C396.622 307.691 394.297 309.005 392.497 310.906C392.497 310.906 380.962 319.629 375.111 306.833V262H330.636C317.936 267.895 326.593 279.516 326.593 279.516C328.48 281.331 329.785 283.673 330.339 286.241C330.892 288.809 330.67 291.486 329.7 293.925C328.73 296.365 327.057 298.456 324.897 299.929C322.736 301.402 320.188 302.189 317.579 302.189C314.971 302.189 312.422 301.402 310.262 299.929C308.101 298.456 306.428 296.365 305.458 293.925C304.489 291.486 304.266 288.809 304.82 286.241C305.374 283.673 306.678 281.331 308.565 279.516C315.7 268.542 304.522 262 304.522 262H260Z" fill="#E44949"/>
<path d="M143 378V333.221C148.947 320.441 160.671 329.153 160.671 329.153C162.501 331.052 164.864 332.365 167.455 332.922C170.046 333.479 172.746 333.255 175.207 332.279C177.668 331.303 179.778 329.62 181.264 327.446C182.75 325.272 183.544 322.707 183.544 320.082C183.544 317.457 182.75 314.892 181.264 312.718C179.778 310.544 177.668 308.861 175.207 307.885C172.746 306.909 170.046 306.685 167.455 307.242C164.864 307.8 162.501 309.112 160.671 311.011C149.599 318.191 143 306.943 143 306.943V262.14H188.229C188.229 262.14 199.687 255.607 192.338 244.645C190.42 242.833 189.094 240.494 188.531 237.929C187.968 235.364 188.194 232.69 189.18 230.254C190.166 227.817 191.867 225.728 194.062 224.257C196.258 222.786 198.849 222 201.5 222C204.151 222 206.742 222.786 208.938 224.257C211.133 225.728 212.834 227.817 213.82 230.254C214.806 232.69 215.032 235.364 214.469 237.929C213.906 240.494 212.58 242.833 210.662 244.645C210.662 244.645 201.863 256.253 214.771 262.14H260V378H143Z" fill="#00A8FF"/>
<path d="M143 378V333.221C148.947 320.441 160.671 329.153 160.671 329.153C162.501 331.052 164.864 332.365 167.455 332.922C170.046 333.479 172.746 333.255 175.207 332.279C177.668 331.303 179.778 329.62 181.264 327.446C182.75 325.272 183.544 322.707 183.544 320.082C183.544 317.457 182.75 314.892 181.264 312.718C179.778 310.544 177.668 308.861 175.207 307.885C172.746 306.909 170.046 306.685 167.455 307.242C164.864 307.8 162.501 309.112 160.671 311.011C149.599 318.191 143 306.943 143 306.943V262.14H188.229C188.229 262.14 199.687 255.607 192.338 244.645C190.42 242.833 189.094 240.494 188.531 237.929C187.968 235.364 188.194 232.69 189.18 230.254C190.166 227.817 191.867 225.728 194.062 224.257C196.258 222.786 198.849 222 201.5 222C204.151 222 206.742 222.786 208.938 224.257C211.133 225.728 212.834 227.817 213.82 230.254C214.806 232.69 215.032 235.364 214.469 237.929C213.906 240.494 212.58 242.833 210.662 244.645C210.662 244.645 201.863 256.253 214.771 262.14H260V378H143Z" fill="#434343"/>
<path d="M300.903 204.012C300.895 206.639 300.093 209.203 298.6 211.376C297.107 213.55 294.992 215.232 292.525 216.208C290.057 217.184 287.352 217.409 284.754 216.854C282.157 216.299 279.786 214.99 277.947 213.094C277.947 213.094 267.093 205.91 260.227 217.167V262H214.873C201.929 256.105 210.752 244.484 210.752 244.484C212.676 242.669 214.006 240.327 214.57 237.759C215.134 235.191 214.908 232.514 213.919 230.075C212.931 227.635 211.225 225.544 209.023 224.071C206.822 222.598 204.224 221.811 201.565 221.811C198.907 221.811 196.309 222.598 194.107 224.071C191.905 225.544 190.2 227.635 189.211 230.075C188.223 232.514 187.996 235.191 188.56 237.759C189.125 240.327 190.455 242.669 192.378 244.484C199.65 255.458 188.257 262 188.257 262H143V146H187.918C200.862 151.895 192.039 163.516 192.039 163.516C190.115 165.331 188.786 167.673 188.221 170.241C187.657 172.809 187.883 175.486 188.872 177.925C189.861 180.365 191.566 182.456 193.768 183.929C195.969 185.402 198.567 186.189 201.226 186.189C203.885 186.189 206.482 185.402 208.684 183.929C210.886 182.456 212.591 180.365 213.58 177.925C214.568 175.486 214.795 172.809 214.231 170.241C213.666 167.673 212.336 165.331 210.413 163.516C203.141 152.542 214.534 146 214.534 146H260.324V190.857C260.324 190.857 266.713 201.419 277.815 194.134C279.006 192.957 281.389 191.779 284.851 191.17C287.448 190.615 290.154 190.84 292.622 191.816C295.089 192.792 297.204 194.474 298.697 196.647C300.19 198.821 300.992 201.385 301 204.012H300.903Z" fill="#6DA260"/>
<path d="M328.998 428.094C329.041 430.71 328.283 433.278 326.824 435.467C325.364 437.656 323.27 439.365 320.812 440.373C318.353 441.381 315.643 441.643 313.032 441.123C310.421 440.604 308.028 439.327 306.163 437.459C306.163 437.459 294.272 428.952 288.496 441.748L289.152 486.332L243.748 486.975C230.692 481.304 239.355 469.628 239.355 469.628C241.246 467.798 242.535 465.454 243.057 462.898C243.58 460.343 243.311 457.692 242.286 455.287C241.261 452.883 239.527 450.834 237.306 449.406C235.085 447.978 232.48 447.235 229.826 447.272C227.172 447.31 224.589 448.127 222.412 449.618C220.235 451.109 218.561 453.206 217.608 455.639C216.654 458.072 216.464 460.729 217.062 463.269C217.659 465.808 219.017 468.115 220.961 469.89C228.508 480.685 217.103 487.357 217.103 487.357L171.699 488L170 372.644L214.967 372.025C228.023 377.696 219.359 389.372 219.359 389.372C217.469 391.202 216.18 393.546 215.657 396.102C215.135 398.657 215.404 401.308 216.429 403.713C217.454 406.117 219.188 408.166 221.409 409.594C223.629 411.022 226.235 411.765 228.889 411.728C231.543 411.69 234.125 410.873 236.303 409.382C238.48 407.891 240.153 405.794 241.107 403.361C242.06 400.928 242.251 398.271 241.653 395.731C241.055 393.192 239.697 390.885 237.754 389.11C230.207 378.315 241.612 371.643 241.612 371.643L287.453 371L288.108 415.608C288.108 415.608 294.903 426.807 305.896 419.397C307.142 418.091 308.645 417.046 310.313 416.326C311.981 415.605 313.781 415.223 315.603 415.203C319.117 415.177 322.499 416.519 325.009 418.934C327.519 421.35 328.954 424.643 328.998 428.094Z" fill="#FF9900"/>
<path d="M185.817 372.008C184.162 373.789 182.878 377.713 185.496 379.373C186.432 379.866 187.47 380.145 188.533 380.192L202.512 381.852C202.092 381.852 209.402 462.122 212.267 479.186C212.613 481.208 213.477 483.735 215.576 484C216.206 483.963 216.817 483.783 217.362 483.474C217.907 483.164 218.37 482.734 218.713 482.219C220.731 479.138 221.881 475.593 222.047 471.942C225.519 445.741 227.169 419.342 226.986 392.924C226.986 387.701 226.789 382.237 224.121 377.688C222.483 375.214 220.336 373.097 217.815 371.473C215.294 369.849 212.454 368.753 209.476 368.253C201.499 366.496 191.62 365.702 185.817 372.008Z" fill="url(#paint12_linear)"/>
<path d="M219.191 538.641V538.919C219.765 540.223 221.583 540.651 223.113 540.822C224.558 540.964 226.012 541.021 227.466 540.993C228.163 541.016 228.859 540.929 229.522 540.737C230.13 540.497 230.701 540.188 231.22 539.817L235.405 537.038C236.581 536.313 237.657 535.466 238.609 534.515C239.552 533.537 240.047 532.277 239.996 530.987C239.946 530.35 239.679 529.741 239.23 529.244C238.781 528.747 238.172 528.385 237.486 528.207C236.612 528.112 235.729 528.112 234.855 528.207C233.883 528.319 232.897 528.176 232.014 527.797C231.131 527.417 230.39 526.817 229.881 526.069C229.708 525.372 229.289 524.742 228.685 524.273C228.076 524.009 227.386 523.934 226.724 524.06C225.272 524.125 223.839 524.377 222.468 524.808C221.776 525.029 221.149 525.386 220.632 525.852C220.115 526.318 219.72 526.882 219.478 527.502C219.332 528.077 219.268 528.666 219.287 529.255C219.371 530.473 219.371 531.694 219.287 532.911C219.096 534.43 219 535.958 219 537.487C219.013 537.877 219.078 538.264 219.191 538.641Z" fill="#4B4B4B"/>
<path d="M261.066 540.048C257.99 541.408 254.825 542.571 251.591 543.529C250.304 544.066 248.862 544.147 247.52 543.756C246.993 543.51 246.528 543.157 246.154 542.722C245.78 542.286 245.507 541.779 245.353 541.233C245.072 540.12 244.957 538.973 245.014 537.828C245.214 536.056 245.59 534.307 246.136 532.605C246.424 531.016 246.658 529.426 246.867 527.837C247.207 525.541 247.52 523.271 247.807 521L256.028 522.69C256.89 522.867 257.699 526.071 258.221 526.752C258.603 527.254 259.097 527.666 259.666 527.959C260.235 528.251 260.865 528.417 261.509 528.442C262.91 528.247 264.322 528.137 265.738 528.114C266.65 528.321 267.465 528.815 268.056 529.518C268.646 530.221 268.978 531.094 269 532C268.993 532.9 268.792 533.789 268.41 534.61C268.028 535.43 267.473 536.166 266.781 536.768C265.397 537.979 263.808 538.952 262.084 539.644L261.066 540.048Z" fill="#4B4B4B"/>
<path d="M260.539 531.818C258.534 532.95 256.451 533.94 254.306 534.78H254.112C250.571 536.153 246.617 530.638 246.617 530.638C246.617 530.638 241.621 500.001 241.766 487.284C241.936 478.565 239.85 466.137 236.721 443.593C235.945 466.619 232.016 476.735 233.01 484.996C234.538 497.545 232.719 528.711 232.719 528.711C232.719 528.711 229.372 534.78 225.709 533.962H225.491C223.286 533.464 221.121 532.804 219.015 531.987C219.015 531.987 214.746 489.067 214.746 477.746C214.746 466.426 215.231 456.286 215.231 456.286L213 420.447L222.508 406.719L223.284 406.406L224.012 405.683L234.563 398C234.563 398 234.562 399.782 234.368 402.817L242.567 407.176L243.343 407.755L244.143 407.947L257.871 410.356C257.871 410.356 261.461 465.343 262.722 476.59C263.984 487.838 260.539 531.818 260.539 531.818Z" fill="#00A8FF"/>
<path d="M260.539 531.818C258.534 532.95 256.451 533.94 254.306 534.78H254.112C250.571 536.153 246.617 530.638 246.617 530.638C246.617 530.638 241.621 500.001 241.766 487.284C241.936 478.565 239.85 466.137 236.721 443.593C235.945 466.619 232.016 476.735 233.01 484.996C234.538 497.545 232.719 528.711 232.719 528.711C232.719 528.711 229.372 534.78 225.709 533.962H225.491C223.286 533.464 221.121 532.804 219.015 531.987C219.015 531.987 214.746 489.067 214.746 477.746C214.746 466.426 215.231 456.286 215.231 456.286L213 420.447L222.508 406.719L223.284 406.406L224.012 405.683L234.563 398C234.563 398 234.562 399.782 234.368 402.817L242.567 407.176L243.343 407.755L244.143 407.947L257.871 410.356C257.871 410.356 261.461 465.343 262.722 476.59C263.984 487.838 260.539 531.818 260.539 531.818Z" fill="#333333"/>
<path d="M324.019 341.181C324.173 341.068 324.358 341.005 324.548 341C325.054 341 325.076 341.838 324.9 342.337C324.439 343.727 323.77 345.034 322.917 346.212C322.641 346.505 322.477 346.892 322.455 347.299C322.455 347.707 322.807 348.002 323.072 348.297C323.882 349.264 324.458 350.415 324.753 351.656C325.048 352.897 325.053 354.191 324.768 355.434C324.157 357.916 322.9 360.18 321.133 361.983C320.707 362.541 320.179 363.006 319.578 363.352C318.976 363.698 318.315 363.918 317.63 364C315.251 364 312.277 360.986 311.33 358.901C310.985 357.86 310.909 356.744 311.11 355.664C311.311 354.583 311.781 353.575 312.475 352.738C315.286 347.923 319.264 343.941 324.019 341.181Z" fill="#A67C52"/>
<path d="M250.997 314.675C251.912 315.511 253.325 316.37 252.933 317.461C252.723 318.042 252.017 318.39 251.494 318.808C250.203 320.023 249.506 321.643 249.558 323.312C249.613 324.973 249.347 326.63 248.773 328.211C248.446 328.994 247.825 329.652 247.015 330.075C246.204 330.498 245.254 330.66 244.325 330.533C243.252 330.278 242.179 329.442 241.133 329.837C240.086 330.231 240.086 330.998 239.668 331.648C239.096 332.448 238.283 333.09 237.321 333.5C236.359 333.911 235.287 334.073 234.225 333.97C232.127 333.69 230.104 333.068 228.26 332.135C227.477 331.858 226.797 331.392 226.298 330.789C225.994 330.2 225.92 329.538 226.089 328.908C226.735 327.018 227.793 325.259 229.202 323.73C231.458 320.645 232.815 317.11 233.153 313.445C233.362 310.89 233.153 308.081 235.01 306.107C237.627 303.414 243.566 303.437 246.68 305.411C249.793 307.385 248.119 312.051 250.997 314.675Z" fill="#A67C52"/>
<path d="M245.418 302.271C245.091 302.93 244.596 303.487 243.985 303.883C242.74 304.629 241.636 305.496 240.509 306.29C239.372 307.058 238.572 308.249 238.277 309.611C237.784 312.017 239.1 314.761 238.277 317.192C237.972 317.697 237.197 317.384 236.892 316.903C236.586 316.422 236.398 315.82 235.928 315.531C235.106 315.05 234.12 315.868 233.767 316.759C233.403 317.794 233.445 318.934 233.883 319.938C234.32 320.943 235.121 321.736 236.116 322.149C235.999 322.92 235.036 323.232 234.261 323.136C233.496 322.921 232.705 322.815 231.912 322.823C230.15 323.16 229.563 325.735 227.73 326C227.124 325.959 226.535 325.774 226.009 325.461C225.483 325.148 225.036 324.715 224.7 324.195L222.563 321.788C222.218 321.32 221.841 320.878 221.435 320.465C220.942 320.08 220.143 320.056 219.744 319.598C219.345 319.141 219.744 318.058 219.321 317.481C219.121 317.266 218.87 317.108 218.593 317.023C217.978 316.705 217.488 316.18 217.206 315.536C216.924 314.892 216.866 314.168 217.043 313.486C217.1 313.314 217.1 313.128 217.043 312.956C217.043 312.715 216.714 312.619 216.479 312.499C215.83 312.068 215.353 311.415 215.134 310.656C214.914 309.897 214.966 309.082 215.281 308.359C215.638 307.529 216.149 306.777 216.784 306.145C217.008 305.792 217.326 305.511 217.701 305.336C218.075 305.161 218.491 305.1 218.898 305.159L219.251 302.006C219.242 301.472 219.349 300.943 219.565 300.456C219.78 299.97 220.098 299.538 220.496 299.193C220.893 298.848 221.361 298.597 221.865 298.459C222.368 298.321 222.896 298.3 223.408 298.396L222.704 295.797C222.574 295.465 222.574 295.094 222.704 294.762C222.897 294.532 223.163 294.379 223.455 294.329C224.275 294.089 225.118 293.944 225.969 293.896C225.664 293.166 225.428 292.409 225.264 291.633C225.21 291.522 225.19 291.396 225.207 291.273C225.223 291.15 225.275 291.034 225.355 290.941C225.436 290.848 225.542 290.782 225.66 290.751C225.777 290.72 225.901 290.725 226.016 290.767C226.327 290.815 226.644 290.815 226.955 290.767C226.955 290.767 226.486 288.553 226.462 288.36C226.32 287.665 226.446 286.941 226.814 286.339C227.071 286.039 227.397 285.81 227.762 285.671C228.127 285.533 228.52 285.489 228.905 285.545C229.667 285.683 230.399 285.96 231.066 286.363C231.066 285.521 232.076 285.087 232.898 285.015C234.481 284.924 236.061 285.245 237.49 285.948C238.919 286.65 240.152 287.712 241.073 289.034C241.225 289.267 241.398 289.484 241.589 289.684C241.965 289.929 242.378 290.108 242.811 290.213C243.477 290.516 244.07 290.966 244.545 291.532C245.021 292.099 245.367 292.766 245.559 293.486C245.911 294.917 246.054 296.393 245.982 297.867C246.036 298.999 245.933 300.133 245.677 301.236C245.63 301.59 245.543 301.937 245.418 302.271Z" fill="#2F3554"/>
<path d="M234.07 329.127C235.881 329.853 237.639 330.695 239.332 331.646C239.855 331.914 240.308 332.291 240.659 332.749C240.846 333 240.961 333.294 240.992 333.601C241.022 333.908 240.967 334.217 240.833 334.497C240.376 335.268 239.289 334.997 238.463 334.706C234.631 333.461 230.587 332.924 226.546 333.124C226.276 333.166 225.999 333.137 225.746 333.037C225.492 332.938 225.273 332.773 225.111 332.562C225.017 332.306 224.982 332.035 225.008 331.765C225.035 331.496 225.122 331.235 225.263 331.001C227.329 327.025 230.7 327.67 234.07 329.127Z" fill="white"/>
<path d="M316.617 364.927C315.746 367.06 314.461 369.004 312.834 370.65C311.268 372.384 309.653 374.046 308.015 375.661C304.056 379.433 299.881 382.977 295.51 386.276C292.54 388.862 289.002 390.732 285.173 391.738C283.62 392.096 281.995 391.997 280.499 391.453C279.282 390.855 278.181 390.051 277.246 389.078C276.138 387.986 263.271 373.381 263.054 373.381C262.324 373.767 261.76 374.4 261.464 375.162C259.605 378.958 258.455 383.053 258.067 387.25C257.91 389.123 257.91 391.005 258.067 392.878C258.573 399.266 260.838 405.844 258.597 411.876C258.149 413.151 257.407 414.305 256.428 415.248C255.485 416.061 254.399 416.697 253.224 417.124C251.147 417.962 248.981 418.568 246.766 418.929C245.502 419.159 244.221 419.294 242.935 419.333C238.116 419.523 233.538 418.62 228.816 418.834C224.816 419.048 220.841 420.069 216.769 419.926C216.194 420.037 215.603 420.023 215.034 419.886C214.466 419.749 213.934 419.492 213.476 419.133C213.018 418.774 212.644 418.322 212.381 417.807C212.117 417.292 211.97 416.727 211.95 416.151C210.389 407.695 209.583 399.121 209.54 390.527C209.54 387.535 209.372 384.519 209.179 381.527C209.01 378.986 209.709 372.526 206.769 372.028C199.3 370.603 191.542 372.408 184 371.363C184.21 366.499 186.305 361.9 189.855 358.515C191.596 357.067 193.486 355.801 195.493 354.74C197.804 353.109 199.879 351.175 201.661 348.993C206.785 342.757 213.277 337.747 220.648 334.341C221.822 333.774 223.059 333.343 224.334 333.058H224.648C224.832 333.037 225.018 333.037 225.202 333.058C226.814 332.925 228.437 333.021 230.021 333.343C240.771 335.101 251.407 337.48 261.874 340.467C263.255 340.773 264.564 341.338 265.729 342.13C266.542 342.854 267.241 343.695 267.801 344.623C270.741 348.993 273.608 353.41 276.571 357.779C279.125 361.531 281.631 366.233 285.39 368.988C293.572 365.71 301.297 361.417 308.376 356.212C309.364 355.476 310.641 354.668 311.774 355.167C312.15 355.333 312.487 355.576 312.761 355.88C315.532 358.254 317.966 360.866 316.617 364.927Z" fill="white"/>
<defs>
<linearGradient id="paint0_linear" x1="236.569" y1="470.123" x2="241.55" y2="565.567" gradientUnits="userSpaceOnUse">
<stop offset="0.01"/>
<stop offset="0.08" stop-opacity="0.69"/>
<stop offset="0.21" stop-opacity="0.32"/>
<stop offset="1" stop-opacity="0"/>
</linearGradient>
<linearGradient id="paint1_linear" x1="114901" y1="5333.69" x2="114928" y2="11475.2" gradientUnits="userSpaceOnUse">
<stop offset="0.01" stop-color="#333333"/>
</linearGradient>
<linearGradient id="paint2_linear" x1="-81229.4" y1="35240.7" x2="-80515" y2="35535.7" gradientUnits="userSpaceOnUse">
<stop offset="0.01"/>
<stop offset="0.08" stop-opacity="0.69"/>
<stop offset="0.21" stop-opacity="0.32"/>
<stop offset="1" stop-opacity="0"/>
</linearGradient>
<linearGradient id="paint3_linear" x1="276.282" y1="227.427" x2="68.6162" y2="-194.679" gradientUnits="userSpaceOnUse">
<stop offset="0.01" stop-color="#B723CF"/>
</linearGradient>
<linearGradient id="paint4_linear" x1="6037.95" y1="2401.06" x2="6197.49" y2="3574.73" gradientUnits="userSpaceOnUse">
<stop offset="0.01" stop-color="#333333"/>
</linearGradient>
<linearGradient id="paint5_linear" x1="-29037.6" y1="-6236.84" x2="-29380.3" y2="-6024.62" gradientUnits="userSpaceOnUse">
<stop offset="0.01" stop-color="#333333"/>
</linearGradient>
<linearGradient id="paint6_linear" x1="20009.6" y1="20161.9" x2="19695.5" y2="48037.6" gradientUnits="userSpaceOnUse">
<stop offset="0.01"/>
<stop offset="0.08" stop-opacity="0.69"/>
<stop offset="0.21" stop-opacity="0.32"/>
<stop offset="1" stop-opacity="0"/>
</linearGradient>
<linearGradient id="paint7_linear" x1="19830.1" y1="35404.8" x2="9155.76" y2="38726.8" gradientUnits="userSpaceOnUse">
<stop offset="0.01"/>
<stop offset="0.08" stop-opacity="0.69"/>
<stop offset="0.21" stop-opacity="0.32"/>
<stop offset="1" stop-opacity="0"/>
</linearGradient>
<linearGradient id="paint8_linear" x1="12143.5" y1="32367.6" x2="-2634.27" y2="35863.9" gradientUnits="userSpaceOnUse">
<stop offset="0.01"/>
<stop offset="0.08" stop-opacity="0.69"/>
<stop offset="0.21" stop-opacity="0.32"/>
<stop offset="1" stop-opacity="0"/>
</linearGradient>
<linearGradient id="paint9_linear" x1="15182.9" y1="5306.64" x2="18733.1" y2="13327.2" gradientUnits="userSpaceOnUse">
<stop offset="0.01" stop-color="#333333"/>
</linearGradient>
<linearGradient id="paint10_linear" x1="20024.1" y1="21247.7" x2="52313.8" y2="38080.7" gradientUnits="userSpaceOnUse">
<stop offset="0.01" stop-color="#434343"/>
</linearGradient>
<linearGradient id="paint11_linear" x1="23363.7" y1="39884.3" x2="32619.6" y2="3112.24" gradientUnits="userSpaceOnUse">
<stop offset="0.01"/>
<stop offset="0.08" stop-opacity="0.69"/>
<stop offset="0.21" stop-opacity="0.32"/>
<stop offset="1" stop-opacity="0"/>
</linearGradient>
<linearGradient id="paint12_linear" x1="6408.68" y1="25392.1" x2="13491.7" y2="28221.2" gradientUnits="userSpaceOnUse">
<stop offset="0.01" stop-color="#232323"/>
</linearGradient>
</defs>
</svg>
